G04 #@! TF.GenerationSoftware,KiCad,Pcbnew,5.1.5-52549c5~86~ubuntu16.04.1*
G04 #@! TF.CreationDate,2020-05-03T15:37:36+09:00*
G04 #@! TF.ProjectId,esp8266-cc2530,65737038-3236-4362-9d63-63323533302e,rev?*
G04 #@! TF.SameCoordinates,Original*
G04 #@! TF.FileFunction,Profile,NP*
%FSLAX46Y46*%
G04 Gerber Fmt 4.6, Leading zero omitted, Abs format (unit mm)*
G04 Created by KiCad (PCBNEW 5.1.5-52549c5~86~ubuntu16.04.1) date 2020-05-03 15:37:36*
%MOMM*%
%LPD*%
G04 APERTURE LIST*
%ADD10C,0.200000*%
G04 APERTURE END LIST*
D10*
X103850000Y-56950000D02*
X103850000Y-25950000D01*
X97850000Y-22950000D02*
X97850000Y-19950000D01*
X103850000Y-25950000D02*
X100850000Y-25950000D01*
X60850000Y-56950000D02*
X63850000Y-56950000D01*
X69450000Y-55450000D02*
G75*
G03X69450000Y-55450000I-1100000J0D01*
G01*
X66850000Y-19950000D02*
X66850000Y-22950000D01*
X97450000Y-27450000D02*
G75*
G03X97450000Y-27450000I-1100000J0D01*
G01*
X66850000Y-22950000D02*
G75*
G02X63850000Y-25950000I-3000000J0D01*
G01*
X69450000Y-27450000D02*
G75*
G03X69450000Y-27450000I-1100000J0D01*
G01*
X100850000Y-56950000D02*
X103850000Y-56950000D01*
X100850000Y-25950000D02*
G75*
G02X97850000Y-22950000I0J3000000D01*
G01*
X97850000Y-19950000D02*
X66850000Y-19950000D01*
X97450000Y-55450000D02*
G75*
G03X97450000Y-55450000I-1100000J0D01*
G01*
X97850000Y-62950000D02*
X97850000Y-59950000D01*
X60850000Y-25950000D02*
X60850000Y-56950000D01*
X66850000Y-59950000D02*
X66850000Y-62950000D01*
X63850000Y-56950000D02*
G75*
G02X66850000Y-59950000I0J-3000000D01*
G01*
X97850000Y-59950000D02*
G75*
G02X100850000Y-56950000I3000000J0D01*
G01*
X66850000Y-62950000D02*
X97850000Y-62950000D01*
X63850000Y-25950000D02*
X60850000Y-25950000D01*
M02*
