G04 #@! TF.GenerationSoftware,KiCad,Pcbnew,5.1.5-52549c5~86~ubuntu16.04.1*
G04 #@! TF.CreationDate,2020-05-03T15:37:36+09:00*
G04 #@! TF.ProjectId,esp8266-cc2530,65737038-3236-4362-9d63-63323533302e,rev?*
G04 #@! TF.SameCoordinates,Original*
G04 #@! TF.FileFunction,Legend,Top*
G04 #@! TF.FilePolarity,Positive*
%FSLAX46Y46*%
G04 Gerber Fmt 4.6, Leading zero omitted, Abs format (unit mm)*
G04 Created by KiCad (PCBNEW 5.1.5-52549c5~86~ubuntu16.04.1) date 2020-05-03 15:37:36*
%MOMM*%
%LPD*%
G04 APERTURE LIST*
%ADD10C,0.120000*%
%ADD11C,0.150000*%
%ADD12C,0.200000*%
G04 APERTURE END LIST*
D10*
X93020000Y-22160000D02*
G75*
G02X95150000Y-24290000I0J-2130000D01*
G01*
X69290000Y-24290000D02*
G75*
G02X71420000Y-22160000I2130000J0D01*
G01*
X71830000Y-49720000D02*
X71830000Y-56620000D01*
X69290000Y-49720000D02*
X71830000Y-49720000D01*
D11*
G36*
X68250000Y-29865000D02*
G01*
X68250000Y-31135000D01*
X68885000Y-30500000D01*
X68250000Y-29865000D01*
G37*
X68250000Y-29865000D02*
X68250000Y-31135000D01*
X68885000Y-30500000D01*
X68250000Y-29865000D01*
D10*
X93030000Y-22160000D02*
X71420000Y-22160000D01*
X95150000Y-56620000D02*
X95150000Y-24290000D01*
X69290000Y-49720000D02*
X69290000Y-24290000D01*
X71830000Y-56620000D02*
X95150000Y-56620000D01*
D12*
X93240000Y-59678922D02*
X93240000Y-60196078D01*
X94660000Y-59678922D02*
X94660000Y-60196078D01*
X91870000Y-55935000D02*
X91935000Y-55935000D01*
X91870000Y-59465000D02*
X91935000Y-59465000D01*
X85465000Y-55935000D02*
X85530000Y-55935000D01*
X85465000Y-59465000D02*
X85530000Y-59465000D01*
X85530000Y-60790000D02*
X85530000Y-59465000D01*
X91935000Y-59465000D02*
X91935000Y-55935000D01*
X85465000Y-59465000D02*
X85465000Y-55935000D01*
X76371078Y-53890000D02*
X75853922Y-53890000D01*
X76371078Y-55310000D02*
X75853922Y-55310000D01*
X90788095Y-51802380D02*
X90788095Y-52611904D01*
X90835714Y-52707142D01*
X90883333Y-52754761D01*
X90978571Y-52802380D01*
X91169047Y-52802380D01*
X91264285Y-52754761D01*
X91311904Y-52707142D01*
X91359523Y-52611904D01*
X91359523Y-51802380D01*
X92359523Y-52802380D02*
X91788095Y-52802380D01*
X92073809Y-52802380D02*
X92073809Y-51802380D01*
X91978571Y-51945238D01*
X91883333Y-52040476D01*
X91788095Y-52088095D01*
X63016666Y-32302380D02*
X63016666Y-33016666D01*
X62969047Y-33159523D01*
X62873809Y-33254761D01*
X62730952Y-33302380D01*
X62635714Y-33302380D01*
X63397619Y-32302380D02*
X64016666Y-32302380D01*
X63683333Y-32683333D01*
X63826190Y-32683333D01*
X63921428Y-32730952D01*
X63969047Y-32778571D01*
X64016666Y-32873809D01*
X64016666Y-33111904D01*
X63969047Y-33207142D01*
X63921428Y-33254761D01*
X63826190Y-33302380D01*
X63540476Y-33302380D01*
X63445238Y-33254761D01*
X63397619Y-33207142D01*
X100816666Y-36602380D02*
X100816666Y-37316666D01*
X100769047Y-37459523D01*
X100673809Y-37554761D01*
X100530952Y-37602380D01*
X100435714Y-37602380D01*
X101245238Y-36697619D02*
X101292857Y-36650000D01*
X101388095Y-36602380D01*
X101626190Y-36602380D01*
X101721428Y-36650000D01*
X101769047Y-36697619D01*
X101816666Y-36792857D01*
X101816666Y-36888095D01*
X101769047Y-37030952D01*
X101197619Y-37602380D01*
X101816666Y-37602380D01*
X96402380Y-60116666D02*
X95926190Y-60450000D01*
X96402380Y-60688095D02*
X95402380Y-60688095D01*
X95402380Y-60307142D01*
X95450000Y-60211904D01*
X95497619Y-60164285D01*
X95592857Y-60116666D01*
X95735714Y-60116666D01*
X95830952Y-60164285D01*
X95878571Y-60211904D01*
X95926190Y-60307142D01*
X95926190Y-60688095D01*
X95402380Y-59211904D02*
X95402380Y-59688095D01*
X95878571Y-59735714D01*
X95830952Y-59688095D01*
X95783333Y-59592857D01*
X95783333Y-59354761D01*
X95830952Y-59259523D01*
X95878571Y-59211904D01*
X95973809Y-59164285D01*
X96211904Y-59164285D01*
X96307142Y-59211904D01*
X96354761Y-59259523D01*
X96402380Y-59354761D01*
X96402380Y-59592857D01*
X96354761Y-59688095D01*
X96307142Y-59735714D01*
X83602380Y-60183333D02*
X84316666Y-60183333D01*
X84459523Y-60230952D01*
X84554761Y-60326190D01*
X84602380Y-60469047D01*
X84602380Y-60564285D01*
X84602380Y-59183333D02*
X84602380Y-59754761D01*
X84602380Y-59469047D02*
X83602380Y-59469047D01*
X83745238Y-59564285D01*
X83840476Y-59659523D01*
X83888095Y-59754761D01*
X75945833Y-53252380D02*
X75612500Y-52776190D01*
X75374404Y-53252380D02*
X75374404Y-52252380D01*
X75755357Y-52252380D01*
X75850595Y-52300000D01*
X75898214Y-52347619D01*
X75945833Y-52442857D01*
X75945833Y-52585714D01*
X75898214Y-52680952D01*
X75850595Y-52728571D01*
X75755357Y-52776190D01*
X75374404Y-52776190D01*
X76898214Y-53252380D02*
X76326785Y-53252380D01*
X76612500Y-53252380D02*
X76612500Y-52252380D01*
X76517261Y-52395238D01*
X76422023Y-52490476D01*
X76326785Y-52538095D01*
M02*
