G04 #@! TF.GenerationSoftware,KiCad,Pcbnew,5.1.5-52549c5~86~ubuntu16.04.1*
G04 #@! TF.CreationDate,2020-05-03T15:37:36+09:00*
G04 #@! TF.ProjectId,esp8266-cc2530,65737038-3236-4362-9d63-63323533302e,rev?*
G04 #@! TF.SameCoordinates,Original*
G04 #@! TF.FileFunction,Legend,Bot*
G04 #@! TF.FilePolarity,Positive*
%FSLAX46Y46*%
G04 Gerber Fmt 4.6, Leading zero omitted, Abs format (unit mm)*
G04 Created by KiCad (PCBNEW 5.1.5-52549c5~86~ubuntu16.04.1) date 2020-05-03 15:37:36*
%MOMM*%
%LPD*%
G04 APERTURE LIST*
%ADD10C,0.200000*%
%ADD11C,0.120000*%
G04 APERTURE END LIST*
D10*
X70978571Y-61702380D02*
X71311904Y-61226190D01*
X71550000Y-61702380D02*
X71550000Y-60702380D01*
X71169047Y-60702380D01*
X71073809Y-60750000D01*
X71026190Y-60797619D01*
X70978571Y-60892857D01*
X70978571Y-61035714D01*
X71026190Y-61130952D01*
X71073809Y-61178571D01*
X71169047Y-61226190D01*
X71550000Y-61226190D01*
X70169047Y-61654761D02*
X70264285Y-61702380D01*
X70454761Y-61702380D01*
X70550000Y-61654761D01*
X70597619Y-61559523D01*
X70597619Y-61178571D01*
X70550000Y-61083333D01*
X70454761Y-61035714D01*
X70264285Y-61035714D01*
X70169047Y-61083333D01*
X70121428Y-61178571D01*
X70121428Y-61273809D01*
X70597619Y-61369047D01*
X69788095Y-61035714D02*
X69550000Y-61702380D01*
X69311904Y-61035714D01*
X68978571Y-61416666D02*
X68502380Y-61416666D01*
X69073809Y-61702380D02*
X68740476Y-60702380D01*
X68407142Y-61702380D01*
X95740476Y-61002380D02*
X96216666Y-61002380D01*
X96264285Y-61478571D01*
X96216666Y-61430952D01*
X96121428Y-61383333D01*
X95883333Y-61383333D01*
X95788095Y-61430952D01*
X95740476Y-61478571D01*
X95692857Y-61573809D01*
X95692857Y-61811904D01*
X95740476Y-61907142D01*
X95788095Y-61954761D01*
X95883333Y-62002380D01*
X96121428Y-62002380D01*
X96216666Y-61954761D01*
X96264285Y-61907142D01*
X94550000Y-60954761D02*
X95407142Y-62240476D01*
X94264285Y-61097619D02*
X94216666Y-61050000D01*
X94121428Y-61002380D01*
X93883333Y-61002380D01*
X93788095Y-61050000D01*
X93740476Y-61097619D01*
X93692857Y-61192857D01*
X93692857Y-61288095D01*
X93740476Y-61430952D01*
X94311904Y-62002380D01*
X93692857Y-62002380D01*
X93073809Y-61002380D02*
X92978571Y-61002380D01*
X92883333Y-61050000D01*
X92835714Y-61097619D01*
X92788095Y-61192857D01*
X92740476Y-61383333D01*
X92740476Y-61621428D01*
X92788095Y-61811904D01*
X92835714Y-61907142D01*
X92883333Y-61954761D01*
X92978571Y-62002380D01*
X93073809Y-62002380D01*
X93169047Y-61954761D01*
X93216666Y-61907142D01*
X93264285Y-61811904D01*
X93311904Y-61621428D01*
X93311904Y-61383333D01*
X93264285Y-61192857D01*
X93216666Y-61097619D01*
X93169047Y-61050000D01*
X93073809Y-61002380D01*
X92359523Y-61097619D02*
X92311904Y-61050000D01*
X92216666Y-61002380D01*
X91978571Y-61002380D01*
X91883333Y-61050000D01*
X91835714Y-61097619D01*
X91788095Y-61192857D01*
X91788095Y-61288095D01*
X91835714Y-61430952D01*
X92407142Y-62002380D01*
X91788095Y-62002380D01*
X91169047Y-61002380D02*
X91073809Y-61002380D01*
X90978571Y-61050000D01*
X90930952Y-61097619D01*
X90883333Y-61192857D01*
X90835714Y-61383333D01*
X90835714Y-61621428D01*
X90883333Y-61811904D01*
X90930952Y-61907142D01*
X90978571Y-61954761D01*
X91073809Y-62002380D01*
X91169047Y-62002380D01*
X91264285Y-61954761D01*
X91311904Y-61907142D01*
X91359523Y-61811904D01*
X91407142Y-61621428D01*
X91407142Y-61383333D01*
X91359523Y-61192857D01*
X91311904Y-61097619D01*
X91264285Y-61050000D01*
X91169047Y-61002380D01*
X96302380Y-59302380D02*
X96064285Y-60302380D01*
X95873809Y-59588095D01*
X95683333Y-60302380D01*
X95445238Y-59302380D01*
X95064285Y-60302380D02*
X95064285Y-59302380D01*
X94492857Y-60302380D01*
X94492857Y-59302380D01*
X93492857Y-59350000D02*
X93588095Y-59302380D01*
X93730952Y-59302380D01*
X93873809Y-59350000D01*
X93969047Y-59445238D01*
X94016666Y-59540476D01*
X94064285Y-59730952D01*
X94064285Y-59873809D01*
X94016666Y-60064285D01*
X93969047Y-60159523D01*
X93873809Y-60254761D01*
X93730952Y-60302380D01*
X93635714Y-60302380D01*
X93492857Y-60254761D01*
X93445238Y-60207142D01*
X93445238Y-59873809D01*
X93635714Y-59873809D01*
D11*
X92600000Y-50150000D02*
X96500000Y-50150000D01*
X92600000Y-48150000D02*
X96500000Y-48150000D01*
X92600000Y-50150000D02*
X92600000Y-48150000D01*
D10*
X80735000Y-43010000D02*
X81210000Y-43010000D01*
X81210000Y-43010000D02*
X81210000Y-42535000D01*
X75465000Y-36790000D02*
X74990000Y-36790000D01*
X74990000Y-36790000D02*
X74990000Y-37265000D01*
X80735000Y-36790000D02*
X81210000Y-36790000D01*
X81210000Y-36790000D02*
X81210000Y-37265000D01*
X75465000Y-43010000D02*
X74990000Y-43010000D01*
X89378922Y-41810000D02*
X89896078Y-41810000D01*
X89378922Y-40390000D02*
X89896078Y-40390000D01*
X83150000Y-36050000D02*
X83150000Y-32850000D01*
X83150000Y-32850000D02*
X87150000Y-32850000D01*
X79375000Y-48025000D02*
X78025000Y-48025000D01*
X79375000Y-46275000D02*
X78025000Y-46275000D01*
X98210000Y-43385000D02*
X98685000Y-43385000D01*
X98685000Y-43385000D02*
X98685000Y-42910000D01*
X95940000Y-40165000D02*
X95465000Y-40165000D01*
X95465000Y-40165000D02*
X95465000Y-40640000D01*
X98210000Y-40165000D02*
X98685000Y-40165000D01*
X98685000Y-40165000D02*
X98685000Y-40640000D01*
X95940000Y-43385000D02*
X95465000Y-43385000D01*
X85340000Y-49950000D02*
X85340000Y-55960000D01*
X92160000Y-52200000D02*
X92160000Y-55960000D01*
X85340000Y-55960000D02*
X86600000Y-55960000D01*
X92160000Y-55960000D02*
X90900000Y-55960000D01*
X94808578Y-32540000D02*
X94291422Y-32540000D01*
X94808578Y-33960000D02*
X94291422Y-33960000D01*
X95360000Y-37071078D02*
X95360000Y-36553922D01*
X93940000Y-37071078D02*
X93940000Y-36553922D01*
X84221078Y-45610000D02*
X83703922Y-45610000D01*
X84221078Y-44190000D02*
X83703922Y-44190000D01*
X90775279Y-38690000D02*
X90449721Y-38690000D01*
X90775279Y-39710000D02*
X90449721Y-39710000D01*
X86190000Y-41724721D02*
X86190000Y-42050279D01*
X87210000Y-41724721D02*
X87210000Y-42050279D01*
X97553922Y-45910000D02*
X98071078Y-45910000D01*
X97553922Y-44490000D02*
X98071078Y-44490000D01*
X94646078Y-44490000D02*
X94128922Y-44490000D01*
X94646078Y-45910000D02*
X94128922Y-45910000D01*
X92928922Y-41810000D02*
X93446078Y-41810000D01*
X92928922Y-40390000D02*
X93446078Y-40390000D01*
X88710000Y-38496078D02*
X88710000Y-37978922D01*
X87290000Y-38496078D02*
X87290000Y-37978922D01*
X85003922Y-39810000D02*
X85521078Y-39810000D01*
X85003922Y-38390000D02*
X85521078Y-38390000D01*
X83903922Y-41710000D02*
X84421078Y-41710000D01*
X83903922Y-40290000D02*
X84421078Y-40290000D01*
X80540000Y-33953922D02*
X80540000Y-34471078D01*
X81960000Y-33953922D02*
X81960000Y-34471078D01*
X83703922Y-43610000D02*
X84221078Y-43610000D01*
X83703922Y-42190000D02*
X84221078Y-42190000D01*
X80560000Y-50446078D02*
X80560000Y-49928922D01*
X79140000Y-50446078D02*
X79140000Y-49928922D01*
X78260000Y-50446078D02*
X78260000Y-49928922D01*
X76840000Y-50446078D02*
X76840000Y-49928922D01*
X87540000Y-34153922D02*
X87540000Y-34671078D01*
X88960000Y-34153922D02*
X88960000Y-34671078D01*
X81190000Y-47428922D02*
X81190000Y-47946078D01*
X82610000Y-47428922D02*
X82610000Y-47946078D01*
X85371078Y-30840000D02*
X84853922Y-30840000D01*
X85371078Y-32260000D02*
X84853922Y-32260000D01*
X74371078Y-43990000D02*
X73853922Y-43990000D01*
X74371078Y-45410000D02*
X73853922Y-45410000D01*
X72340000Y-41428922D02*
X72340000Y-41946078D01*
X73760000Y-41428922D02*
X73760000Y-41946078D01*
X72840000Y-35128922D02*
X72840000Y-35646078D01*
X74260000Y-35128922D02*
X74260000Y-35646078D01*
X81690000Y-56572500D02*
X81690000Y-52362500D01*
X84710000Y-56572500D02*
X81690000Y-56572500D01*
X84710000Y-52362500D02*
X84710000Y-56572500D01*
X81160000Y-53978922D02*
X81160000Y-54496078D01*
X79740000Y-53978922D02*
X79740000Y-54496078D01*
X95588095Y-51602380D02*
X95588095Y-50602380D01*
X95350000Y-50602380D01*
X95207142Y-50650000D01*
X95111904Y-50745238D01*
X95064285Y-50840476D01*
X95016666Y-51030952D01*
X95016666Y-51173809D01*
X95064285Y-51364285D01*
X95111904Y-51459523D01*
X95207142Y-51554761D01*
X95350000Y-51602380D01*
X95588095Y-51602380D01*
X94064285Y-51602380D02*
X94635714Y-51602380D01*
X94350000Y-51602380D02*
X94350000Y-50602380D01*
X94445238Y-50745238D01*
X94540476Y-50840476D01*
X94635714Y-50888095D01*
X78861904Y-43652380D02*
X78861904Y-44461904D01*
X78814285Y-44557142D01*
X78766666Y-44604761D01*
X78671428Y-44652380D01*
X78480952Y-44652380D01*
X78385714Y-44604761D01*
X78338095Y-44557142D01*
X78290476Y-44461904D01*
X78290476Y-43652380D01*
X77909523Y-43652380D02*
X77290476Y-43652380D01*
X77623809Y-44033333D01*
X77480952Y-44033333D01*
X77385714Y-44080952D01*
X77338095Y-44128571D01*
X77290476Y-44223809D01*
X77290476Y-44461904D01*
X77338095Y-44557142D01*
X77385714Y-44604761D01*
X77480952Y-44652380D01*
X77766666Y-44652380D01*
X77861904Y-44604761D01*
X77909523Y-44557142D01*
X90392857Y-44107142D02*
X90440476Y-44154761D01*
X90583333Y-44202380D01*
X90678571Y-44202380D01*
X90821428Y-44154761D01*
X90916666Y-44059523D01*
X90964285Y-43964285D01*
X91011904Y-43773809D01*
X91011904Y-43630952D01*
X90964285Y-43440476D01*
X90916666Y-43345238D01*
X90821428Y-43250000D01*
X90678571Y-43202380D01*
X90583333Y-43202380D01*
X90440476Y-43250000D01*
X90392857Y-43297619D01*
X89440476Y-44202380D02*
X90011904Y-44202380D01*
X89726190Y-44202380D02*
X89726190Y-43202380D01*
X89821428Y-43345238D01*
X89916666Y-43440476D01*
X90011904Y-43488095D01*
X88583333Y-43202380D02*
X88773809Y-43202380D01*
X88869047Y-43250000D01*
X88916666Y-43297619D01*
X89011904Y-43440476D01*
X89059523Y-43630952D01*
X89059523Y-44011904D01*
X89011904Y-44107142D01*
X88964285Y-44154761D01*
X88869047Y-44202380D01*
X88678571Y-44202380D01*
X88583333Y-44154761D01*
X88535714Y-44107142D01*
X88488095Y-44011904D01*
X88488095Y-43773809D01*
X88535714Y-43678571D01*
X88583333Y-43630952D01*
X88678571Y-43583333D01*
X88869047Y-43583333D01*
X88964285Y-43630952D01*
X89011904Y-43678571D01*
X89059523Y-43773809D01*
X83126190Y-32026190D02*
X83126190Y-32502380D01*
X83459523Y-31502380D02*
X83126190Y-32026190D01*
X82792857Y-31502380D01*
X82507142Y-31597619D02*
X82459523Y-31550000D01*
X82364285Y-31502380D01*
X82126190Y-31502380D01*
X82030952Y-31550000D01*
X81983333Y-31597619D01*
X81935714Y-31692857D01*
X81935714Y-31788095D01*
X81983333Y-31930952D01*
X82554761Y-32502380D01*
X81935714Y-32502380D01*
X76126190Y-47126190D02*
X76126190Y-47602380D01*
X76459523Y-46602380D02*
X76126190Y-47126190D01*
X75792857Y-46602380D01*
X74935714Y-47602380D02*
X75507142Y-47602380D01*
X75221428Y-47602380D02*
X75221428Y-46602380D01*
X75316666Y-46745238D01*
X75411904Y-46840476D01*
X75507142Y-46888095D01*
X99211904Y-38402380D02*
X99211904Y-39211904D01*
X99164285Y-39307142D01*
X99116666Y-39354761D01*
X99021428Y-39402380D01*
X98830952Y-39402380D01*
X98735714Y-39354761D01*
X98688095Y-39307142D01*
X98640476Y-39211904D01*
X98640476Y-38402380D01*
X97735714Y-38735714D02*
X97735714Y-39402380D01*
X97973809Y-38354761D02*
X98211904Y-39069047D01*
X97592857Y-39069047D01*
X89411904Y-58902380D02*
X89411904Y-59711904D01*
X89364285Y-59807142D01*
X89316666Y-59854761D01*
X89221428Y-59902380D01*
X89030952Y-59902380D01*
X88935714Y-59854761D01*
X88888095Y-59807142D01*
X88840476Y-59711904D01*
X88840476Y-58902380D01*
X88411904Y-58997619D02*
X88364285Y-58950000D01*
X88269047Y-58902380D01*
X88030952Y-58902380D01*
X87935714Y-58950000D01*
X87888095Y-58997619D01*
X87840476Y-59092857D01*
X87840476Y-59188095D01*
X87888095Y-59330952D01*
X88459523Y-59902380D01*
X87840476Y-59902380D01*
X94716666Y-32052380D02*
X95050000Y-31576190D01*
X95288095Y-32052380D02*
X95288095Y-31052380D01*
X94907142Y-31052380D01*
X94811904Y-31100000D01*
X94764285Y-31147619D01*
X94716666Y-31242857D01*
X94716666Y-31385714D01*
X94764285Y-31480952D01*
X94811904Y-31528571D01*
X94907142Y-31576190D01*
X95288095Y-31576190D01*
X93859523Y-31385714D02*
X93859523Y-32052380D01*
X94097619Y-31004761D02*
X94335714Y-31719047D01*
X93716666Y-31719047D01*
X96752380Y-36645833D02*
X96276190Y-36312500D01*
X96752380Y-36074404D02*
X95752380Y-36074404D01*
X95752380Y-36455357D01*
X95800000Y-36550595D01*
X95847619Y-36598214D01*
X95942857Y-36645833D01*
X96085714Y-36645833D01*
X96180952Y-36598214D01*
X96228571Y-36550595D01*
X96276190Y-36455357D01*
X96276190Y-36074404D01*
X95752380Y-36979166D02*
X95752380Y-37598214D01*
X96133333Y-37264880D01*
X96133333Y-37407738D01*
X96180952Y-37502976D01*
X96228571Y-37550595D01*
X96323809Y-37598214D01*
X96561904Y-37598214D01*
X96657142Y-37550595D01*
X96704761Y-37502976D01*
X96752380Y-37407738D01*
X96752380Y-37122023D01*
X96704761Y-37026785D01*
X96657142Y-36979166D01*
X84416666Y-50002380D02*
X84750000Y-49526190D01*
X84988095Y-50002380D02*
X84988095Y-49002380D01*
X84607142Y-49002380D01*
X84511904Y-49050000D01*
X84464285Y-49097619D01*
X84416666Y-49192857D01*
X84416666Y-49335714D01*
X84464285Y-49430952D01*
X84511904Y-49478571D01*
X84607142Y-49526190D01*
X84988095Y-49526190D01*
X84035714Y-49097619D02*
X83988095Y-49050000D01*
X83892857Y-49002380D01*
X83654761Y-49002380D01*
X83559523Y-49050000D01*
X83511904Y-49097619D01*
X83464285Y-49192857D01*
X83464285Y-49288095D01*
X83511904Y-49430952D01*
X84083333Y-50002380D01*
X83464285Y-50002380D01*
X92116666Y-37402380D02*
X92592857Y-37402380D01*
X92592857Y-36402380D01*
X91830952Y-36497619D02*
X91783333Y-36450000D01*
X91688095Y-36402380D01*
X91450000Y-36402380D01*
X91354761Y-36450000D01*
X91307142Y-36497619D01*
X91259523Y-36592857D01*
X91259523Y-36688095D01*
X91307142Y-36830952D01*
X91878571Y-37402380D01*
X91259523Y-37402380D01*
X87502380Y-45583333D02*
X87502380Y-45107142D01*
X86502380Y-45107142D01*
X87502380Y-46440476D02*
X87502380Y-45869047D01*
X87502380Y-46154761D02*
X86502380Y-46154761D01*
X86645238Y-46059523D01*
X86740476Y-45964285D01*
X86788095Y-45869047D01*
X97467857Y-47407142D02*
X97515476Y-47454761D01*
X97658333Y-47502380D01*
X97753571Y-47502380D01*
X97896428Y-47454761D01*
X97991666Y-47359523D01*
X98039285Y-47264285D01*
X98086904Y-47073809D01*
X98086904Y-46930952D01*
X98039285Y-46740476D01*
X97991666Y-46645238D01*
X97896428Y-46550000D01*
X97753571Y-46502380D01*
X97658333Y-46502380D01*
X97515476Y-46550000D01*
X97467857Y-46597619D01*
X97086904Y-46597619D02*
X97039285Y-46550000D01*
X96944047Y-46502380D01*
X96705952Y-46502380D01*
X96610714Y-46550000D01*
X96563095Y-46597619D01*
X96515476Y-46692857D01*
X96515476Y-46788095D01*
X96563095Y-46930952D01*
X97134523Y-47502380D01*
X96515476Y-47502380D01*
X95896428Y-46502380D02*
X95801190Y-46502380D01*
X95705952Y-46550000D01*
X95658333Y-46597619D01*
X95610714Y-46692857D01*
X95563095Y-46883333D01*
X95563095Y-47121428D01*
X95610714Y-47311904D01*
X95658333Y-47407142D01*
X95705952Y-47454761D01*
X95801190Y-47502380D01*
X95896428Y-47502380D01*
X95991666Y-47454761D01*
X96039285Y-47407142D01*
X96086904Y-47311904D01*
X96134523Y-47121428D01*
X96134523Y-46883333D01*
X96086904Y-46692857D01*
X96039285Y-46597619D01*
X95991666Y-46550000D01*
X95896428Y-46502380D01*
X94117857Y-47407142D02*
X94165476Y-47454761D01*
X94308333Y-47502380D01*
X94403571Y-47502380D01*
X94546428Y-47454761D01*
X94641666Y-47359523D01*
X94689285Y-47264285D01*
X94736904Y-47073809D01*
X94736904Y-46930952D01*
X94689285Y-46740476D01*
X94641666Y-46645238D01*
X94546428Y-46550000D01*
X94403571Y-46502380D01*
X94308333Y-46502380D01*
X94165476Y-46550000D01*
X94117857Y-46597619D01*
X93165476Y-47502380D02*
X93736904Y-47502380D01*
X93451190Y-47502380D02*
X93451190Y-46502380D01*
X93546428Y-46645238D01*
X93641666Y-46740476D01*
X93736904Y-46788095D01*
X92689285Y-47502380D02*
X92498809Y-47502380D01*
X92403571Y-47454761D01*
X92355952Y-47407142D01*
X92260714Y-47264285D01*
X92213095Y-47073809D01*
X92213095Y-46692857D01*
X92260714Y-46597619D01*
X92308333Y-46550000D01*
X92403571Y-46502380D01*
X92594047Y-46502380D01*
X92689285Y-46550000D01*
X92736904Y-46597619D01*
X92784523Y-46692857D01*
X92784523Y-46930952D01*
X92736904Y-47026190D01*
X92689285Y-47073809D01*
X92594047Y-47121428D01*
X92403571Y-47121428D01*
X92308333Y-47073809D01*
X92260714Y-47026190D01*
X92213095Y-46930952D01*
X93892857Y-44007142D02*
X93940476Y-44054761D01*
X94083333Y-44102380D01*
X94178571Y-44102380D01*
X94321428Y-44054761D01*
X94416666Y-43959523D01*
X94464285Y-43864285D01*
X94511904Y-43673809D01*
X94511904Y-43530952D01*
X94464285Y-43340476D01*
X94416666Y-43245238D01*
X94321428Y-43150000D01*
X94178571Y-43102380D01*
X94083333Y-43102380D01*
X93940476Y-43150000D01*
X93892857Y-43197619D01*
X92940476Y-44102380D02*
X93511904Y-44102380D01*
X93226190Y-44102380D02*
X93226190Y-43102380D01*
X93321428Y-43245238D01*
X93416666Y-43340476D01*
X93511904Y-43388095D01*
X92369047Y-43530952D02*
X92464285Y-43483333D01*
X92511904Y-43435714D01*
X92559523Y-43340476D01*
X92559523Y-43292857D01*
X92511904Y-43197619D01*
X92464285Y-43150000D01*
X92369047Y-43102380D01*
X92178571Y-43102380D01*
X92083333Y-43150000D01*
X92035714Y-43197619D01*
X91988095Y-43292857D01*
X91988095Y-43340476D01*
X92035714Y-43435714D01*
X92083333Y-43483333D01*
X92178571Y-43530952D01*
X92369047Y-43530952D01*
X92464285Y-43578571D01*
X92511904Y-43626190D01*
X92559523Y-43721428D01*
X92559523Y-43911904D01*
X92511904Y-44007142D01*
X92464285Y-44054761D01*
X92369047Y-44102380D01*
X92178571Y-44102380D01*
X92083333Y-44054761D01*
X92035714Y-44007142D01*
X91988095Y-43911904D01*
X91988095Y-43721428D01*
X92035714Y-43626190D01*
X92083333Y-43578571D01*
X92178571Y-43530952D01*
X90307142Y-35507142D02*
X90354761Y-35459523D01*
X90402380Y-35316666D01*
X90402380Y-35221428D01*
X90354761Y-35078571D01*
X90259523Y-34983333D01*
X90164285Y-34935714D01*
X89973809Y-34888095D01*
X89830952Y-34888095D01*
X89640476Y-34935714D01*
X89545238Y-34983333D01*
X89450000Y-35078571D01*
X89402380Y-35221428D01*
X89402380Y-35316666D01*
X89450000Y-35459523D01*
X89497619Y-35507142D01*
X90402380Y-36459523D02*
X90402380Y-35888095D01*
X90402380Y-36173809D02*
X89402380Y-36173809D01*
X89545238Y-36078571D01*
X89640476Y-35983333D01*
X89688095Y-35888095D01*
X89402380Y-37364285D02*
X89402380Y-36888095D01*
X89878571Y-36840476D01*
X89830952Y-36888095D01*
X89783333Y-36983333D01*
X89783333Y-37221428D01*
X89830952Y-37316666D01*
X89878571Y-37364285D01*
X89973809Y-37411904D01*
X90211904Y-37411904D01*
X90307142Y-37364285D01*
X90354761Y-37316666D01*
X90402380Y-37221428D01*
X90402380Y-36983333D01*
X90354761Y-36888095D01*
X90307142Y-36840476D01*
X84992857Y-37907142D02*
X85040476Y-37954761D01*
X85183333Y-38002380D01*
X85278571Y-38002380D01*
X85421428Y-37954761D01*
X85516666Y-37859523D01*
X85564285Y-37764285D01*
X85611904Y-37573809D01*
X85611904Y-37430952D01*
X85564285Y-37240476D01*
X85516666Y-37145238D01*
X85421428Y-37050000D01*
X85278571Y-37002380D01*
X85183333Y-37002380D01*
X85040476Y-37050000D01*
X84992857Y-37097619D01*
X84040476Y-38002380D02*
X84611904Y-38002380D01*
X84326190Y-38002380D02*
X84326190Y-37002380D01*
X84421428Y-37145238D01*
X84516666Y-37240476D01*
X84611904Y-37288095D01*
X83183333Y-37335714D02*
X83183333Y-38002380D01*
X83421428Y-36954761D02*
X83659523Y-37669047D01*
X83040476Y-37669047D01*
X85492857Y-47007142D02*
X85540476Y-47054761D01*
X85683333Y-47102380D01*
X85778571Y-47102380D01*
X85921428Y-47054761D01*
X86016666Y-46959523D01*
X86064285Y-46864285D01*
X86111904Y-46673809D01*
X86111904Y-46530952D01*
X86064285Y-46340476D01*
X86016666Y-46245238D01*
X85921428Y-46150000D01*
X85778571Y-46102380D01*
X85683333Y-46102380D01*
X85540476Y-46150000D01*
X85492857Y-46197619D01*
X84540476Y-47102380D02*
X85111904Y-47102380D01*
X84826190Y-47102380D02*
X84826190Y-46102380D01*
X84921428Y-46245238D01*
X85016666Y-46340476D01*
X85111904Y-46388095D01*
X84207142Y-46102380D02*
X83588095Y-46102380D01*
X83921428Y-46483333D01*
X83778571Y-46483333D01*
X83683333Y-46530952D01*
X83635714Y-46578571D01*
X83588095Y-46673809D01*
X83588095Y-46911904D01*
X83635714Y-47007142D01*
X83683333Y-47054761D01*
X83778571Y-47102380D01*
X84064285Y-47102380D01*
X84159523Y-47054761D01*
X84207142Y-47007142D01*
X79957142Y-33569642D02*
X80004761Y-33522023D01*
X80052380Y-33379166D01*
X80052380Y-33283928D01*
X80004761Y-33141071D01*
X79909523Y-33045833D01*
X79814285Y-32998214D01*
X79623809Y-32950595D01*
X79480952Y-32950595D01*
X79290476Y-32998214D01*
X79195238Y-33045833D01*
X79100000Y-33141071D01*
X79052380Y-33283928D01*
X79052380Y-33379166D01*
X79100000Y-33522023D01*
X79147619Y-33569642D01*
X80052380Y-34522023D02*
X80052380Y-33950595D01*
X80052380Y-34236309D02*
X79052380Y-34236309D01*
X79195238Y-34141071D01*
X79290476Y-34045833D01*
X79338095Y-33950595D01*
X79147619Y-34902976D02*
X79100000Y-34950595D01*
X79052380Y-35045833D01*
X79052380Y-35283928D01*
X79100000Y-35379166D01*
X79147619Y-35426785D01*
X79242857Y-35474404D01*
X79338095Y-35474404D01*
X79480952Y-35426785D01*
X80052380Y-34855357D01*
X80052380Y-35474404D01*
X85292857Y-48407142D02*
X85340476Y-48454761D01*
X85483333Y-48502380D01*
X85578571Y-48502380D01*
X85721428Y-48454761D01*
X85816666Y-48359523D01*
X85864285Y-48264285D01*
X85911904Y-48073809D01*
X85911904Y-47930952D01*
X85864285Y-47740476D01*
X85816666Y-47645238D01*
X85721428Y-47550000D01*
X85578571Y-47502380D01*
X85483333Y-47502380D01*
X85340476Y-47550000D01*
X85292857Y-47597619D01*
X84340476Y-48502380D02*
X84911904Y-48502380D01*
X84626190Y-48502380D02*
X84626190Y-47502380D01*
X84721428Y-47645238D01*
X84816666Y-47740476D01*
X84911904Y-47788095D01*
X83388095Y-48502380D02*
X83959523Y-48502380D01*
X83673809Y-48502380D02*
X83673809Y-47502380D01*
X83769047Y-47645238D01*
X83864285Y-47740476D01*
X83959523Y-47788095D01*
X82892857Y-51307142D02*
X82940476Y-51354761D01*
X83083333Y-51402380D01*
X83178571Y-51402380D01*
X83321428Y-51354761D01*
X83416666Y-51259523D01*
X83464285Y-51164285D01*
X83511904Y-50973809D01*
X83511904Y-50830952D01*
X83464285Y-50640476D01*
X83416666Y-50545238D01*
X83321428Y-50450000D01*
X83178571Y-50402380D01*
X83083333Y-50402380D01*
X82940476Y-50450000D01*
X82892857Y-50497619D01*
X81940476Y-51402380D02*
X82511904Y-51402380D01*
X82226190Y-51402380D02*
X82226190Y-50402380D01*
X82321428Y-50545238D01*
X82416666Y-50640476D01*
X82511904Y-50688095D01*
X81321428Y-50402380D02*
X81226190Y-50402380D01*
X81130952Y-50450000D01*
X81083333Y-50497619D01*
X81035714Y-50592857D01*
X80988095Y-50783333D01*
X80988095Y-51021428D01*
X81035714Y-51211904D01*
X81083333Y-51307142D01*
X81130952Y-51354761D01*
X81226190Y-51402380D01*
X81321428Y-51402380D01*
X81416666Y-51354761D01*
X81464285Y-51307142D01*
X81511904Y-51211904D01*
X81559523Y-51021428D01*
X81559523Y-50783333D01*
X81511904Y-50592857D01*
X81464285Y-50497619D01*
X81416666Y-50450000D01*
X81321428Y-50402380D01*
X76107142Y-49883333D02*
X76154761Y-49835714D01*
X76202380Y-49692857D01*
X76202380Y-49597619D01*
X76154761Y-49454761D01*
X76059523Y-49359523D01*
X75964285Y-49311904D01*
X75773809Y-49264285D01*
X75630952Y-49264285D01*
X75440476Y-49311904D01*
X75345238Y-49359523D01*
X75250000Y-49454761D01*
X75202380Y-49597619D01*
X75202380Y-49692857D01*
X75250000Y-49835714D01*
X75297619Y-49883333D01*
X76202380Y-50359523D02*
X76202380Y-50550000D01*
X76154761Y-50645238D01*
X76107142Y-50692857D01*
X75964285Y-50788095D01*
X75773809Y-50835714D01*
X75392857Y-50835714D01*
X75297619Y-50788095D01*
X75250000Y-50740476D01*
X75202380Y-50645238D01*
X75202380Y-50454761D01*
X75250000Y-50359523D01*
X75297619Y-50311904D01*
X75392857Y-50264285D01*
X75630952Y-50264285D01*
X75726190Y-50311904D01*
X75773809Y-50359523D01*
X75821428Y-50454761D01*
X75821428Y-50645238D01*
X75773809Y-50740476D01*
X75726190Y-50788095D01*
X75630952Y-50835714D01*
X90307142Y-32583333D02*
X90354761Y-32535714D01*
X90402380Y-32392857D01*
X90402380Y-32297619D01*
X90354761Y-32154761D01*
X90259523Y-32059523D01*
X90164285Y-32011904D01*
X89973809Y-31964285D01*
X89830952Y-31964285D01*
X89640476Y-32011904D01*
X89545238Y-32059523D01*
X89450000Y-32154761D01*
X89402380Y-32297619D01*
X89402380Y-32392857D01*
X89450000Y-32535714D01*
X89497619Y-32583333D01*
X89830952Y-33154761D02*
X89783333Y-33059523D01*
X89735714Y-33011904D01*
X89640476Y-32964285D01*
X89592857Y-32964285D01*
X89497619Y-33011904D01*
X89450000Y-33059523D01*
X89402380Y-33154761D01*
X89402380Y-33345238D01*
X89450000Y-33440476D01*
X89497619Y-33488095D01*
X89592857Y-33535714D01*
X89640476Y-33535714D01*
X89735714Y-33488095D01*
X89783333Y-33440476D01*
X89830952Y-33345238D01*
X89830952Y-33154761D01*
X89878571Y-33059523D01*
X89926190Y-33011904D01*
X90021428Y-32964285D01*
X90211904Y-32964285D01*
X90307142Y-33011904D01*
X90354761Y-33059523D01*
X90402380Y-33154761D01*
X90402380Y-33345238D01*
X90354761Y-33440476D01*
X90307142Y-33488095D01*
X90211904Y-33535714D01*
X90021428Y-33535714D01*
X89926190Y-33488095D01*
X89878571Y-33440476D01*
X89830952Y-33345238D01*
X81107142Y-44683333D02*
X81154761Y-44635714D01*
X81202380Y-44492857D01*
X81202380Y-44397619D01*
X81154761Y-44254761D01*
X81059523Y-44159523D01*
X80964285Y-44111904D01*
X80773809Y-44064285D01*
X80630952Y-44064285D01*
X80440476Y-44111904D01*
X80345238Y-44159523D01*
X80250000Y-44254761D01*
X80202380Y-44397619D01*
X80202380Y-44492857D01*
X80250000Y-44635714D01*
X80297619Y-44683333D01*
X80202380Y-45016666D02*
X80202380Y-45683333D01*
X81202380Y-45254761D01*
X85279166Y-30257142D02*
X85326785Y-30304761D01*
X85469642Y-30352380D01*
X85564880Y-30352380D01*
X85707738Y-30304761D01*
X85802976Y-30209523D01*
X85850595Y-30114285D01*
X85898214Y-29923809D01*
X85898214Y-29780952D01*
X85850595Y-29590476D01*
X85802976Y-29495238D01*
X85707738Y-29400000D01*
X85564880Y-29352380D01*
X85469642Y-29352380D01*
X85326785Y-29400000D01*
X85279166Y-29447619D01*
X84422023Y-29352380D02*
X84612500Y-29352380D01*
X84707738Y-29400000D01*
X84755357Y-29447619D01*
X84850595Y-29590476D01*
X84898214Y-29780952D01*
X84898214Y-30161904D01*
X84850595Y-30257142D01*
X84802976Y-30304761D01*
X84707738Y-30352380D01*
X84517261Y-30352380D01*
X84422023Y-30304761D01*
X84374404Y-30257142D01*
X84326785Y-30161904D01*
X84326785Y-29923809D01*
X84374404Y-29828571D01*
X84422023Y-29780952D01*
X84517261Y-29733333D01*
X84707738Y-29733333D01*
X84802976Y-29780952D01*
X84850595Y-29828571D01*
X84898214Y-29923809D01*
X74216666Y-46707142D02*
X74264285Y-46754761D01*
X74407142Y-46802380D01*
X74502380Y-46802380D01*
X74645238Y-46754761D01*
X74740476Y-46659523D01*
X74788095Y-46564285D01*
X74835714Y-46373809D01*
X74835714Y-46230952D01*
X74788095Y-46040476D01*
X74740476Y-45945238D01*
X74645238Y-45850000D01*
X74502380Y-45802380D01*
X74407142Y-45802380D01*
X74264285Y-45850000D01*
X74216666Y-45897619D01*
X73311904Y-45802380D02*
X73788095Y-45802380D01*
X73835714Y-46278571D01*
X73788095Y-46230952D01*
X73692857Y-46183333D01*
X73454761Y-46183333D01*
X73359523Y-46230952D01*
X73311904Y-46278571D01*
X73264285Y-46373809D01*
X73264285Y-46611904D01*
X73311904Y-46707142D01*
X73359523Y-46754761D01*
X73454761Y-46802380D01*
X73692857Y-46802380D01*
X73788095Y-46754761D01*
X73835714Y-46707142D01*
X71757142Y-41520833D02*
X71804761Y-41473214D01*
X71852380Y-41330357D01*
X71852380Y-41235119D01*
X71804761Y-41092261D01*
X71709523Y-40997023D01*
X71614285Y-40949404D01*
X71423809Y-40901785D01*
X71280952Y-40901785D01*
X71090476Y-40949404D01*
X70995238Y-40997023D01*
X70900000Y-41092261D01*
X70852380Y-41235119D01*
X70852380Y-41330357D01*
X70900000Y-41473214D01*
X70947619Y-41520833D01*
X71185714Y-42377976D02*
X71852380Y-42377976D01*
X70804761Y-42139880D02*
X71519047Y-41901785D01*
X71519047Y-42520833D01*
X72257142Y-35220833D02*
X72304761Y-35173214D01*
X72352380Y-35030357D01*
X72352380Y-34935119D01*
X72304761Y-34792261D01*
X72209523Y-34697023D01*
X72114285Y-34649404D01*
X71923809Y-34601785D01*
X71780952Y-34601785D01*
X71590476Y-34649404D01*
X71495238Y-34697023D01*
X71400000Y-34792261D01*
X71352380Y-34935119D01*
X71352380Y-35030357D01*
X71400000Y-35173214D01*
X71447619Y-35220833D01*
X71352380Y-35554166D02*
X71352380Y-36173214D01*
X71733333Y-35839880D01*
X71733333Y-35982738D01*
X71780952Y-36077976D01*
X71828571Y-36125595D01*
X71923809Y-36173214D01*
X72161904Y-36173214D01*
X72257142Y-36125595D01*
X72304761Y-36077976D01*
X72352380Y-35982738D01*
X72352380Y-35697023D01*
X72304761Y-35601785D01*
X72257142Y-35554166D01*
X82407142Y-57683333D02*
X82454761Y-57635714D01*
X82502380Y-57492857D01*
X82502380Y-57397619D01*
X82454761Y-57254761D01*
X82359523Y-57159523D01*
X82264285Y-57111904D01*
X82073809Y-57064285D01*
X81930952Y-57064285D01*
X81740476Y-57111904D01*
X81645238Y-57159523D01*
X81550000Y-57254761D01*
X81502380Y-57397619D01*
X81502380Y-57492857D01*
X81550000Y-57635714D01*
X81597619Y-57683333D01*
X81597619Y-58064285D02*
X81550000Y-58111904D01*
X81502380Y-58207142D01*
X81502380Y-58445238D01*
X81550000Y-58540476D01*
X81597619Y-58588095D01*
X81692857Y-58635714D01*
X81788095Y-58635714D01*
X81930952Y-58588095D01*
X82502380Y-58016666D01*
X82502380Y-58635714D01*
X80807142Y-56983333D02*
X80854761Y-56935714D01*
X80902380Y-56792857D01*
X80902380Y-56697619D01*
X80854761Y-56554761D01*
X80759523Y-56459523D01*
X80664285Y-56411904D01*
X80473809Y-56364285D01*
X80330952Y-56364285D01*
X80140476Y-56411904D01*
X80045238Y-56459523D01*
X79950000Y-56554761D01*
X79902380Y-56697619D01*
X79902380Y-56792857D01*
X79950000Y-56935714D01*
X79997619Y-56983333D01*
X80902380Y-57935714D02*
X80902380Y-57364285D01*
X80902380Y-57650000D02*
X79902380Y-57650000D01*
X80045238Y-57554761D01*
X80140476Y-57459523D01*
X80188095Y-57364285D01*
M02*
