M48
; DRILL file {KiCad 5.1.5-52549c5~86~ubuntu16.04.1} date Sun May  3 15:37:38 2020
; FORMAT={-:-/ absolute / inch / decimal}
; #@! TF.CreationDate,2020-05-03T15:37:38+09:00
; #@! TF.GenerationSoftware,Kicad,Pcbnew,5.1.5-52549c5~86~ubuntu16.04.1
; #@! TF.FileFunction,Plated,1,2,PTH
FMAT,2
INCH
T1C0.0157
T2C0.0276
%
G90
G05
T1
X2.6083Y-1.8996
X2.6201Y-1.4154
X2.7224Y-1.4035
X2.7736Y-1.4311
X2.8169Y-1.4823
X2.8445Y-1.7343
X2.8957Y-1.313
X2.8957Y-1.4823
X3.0335Y-1.5295
X3.0335Y-1.5295
X3.0335Y-1.6201
X3.0984Y-2.128
X3.1004Y-2.0561
X3.1161Y-1.2185
X3.128Y-1.502
X3.1319Y-1.6004
X3.1905Y-1.4306
X3.1909Y-1.2579
X3.2185Y-1.7736
X3.2224Y-1.9626
X3.2303Y-1.6516
X3.2461Y-1.2185
X3.25Y-1.2972
X3.2657Y-1.5177
X3.2776Y-2.3642
X3.2854Y-2.2835
X3.3091Y-1.4429
X3.3307Y-2.252
X3.3917Y-1.4744
X3.3917Y-2.1122
X3.4035Y-1.75
X3.435Y-1.2421
X3.4547Y-1.7146
X3.4744Y-1.2657
X3.4744Y-1.6752
X3.5335Y-1.498
X3.5335Y-1.6752
X3.5925Y-1.498
X3.5925Y-1.6752
X3.6319Y-2.2657
X3.6398Y-1.7776
X3.6516Y-1.498
X3.6516Y-1.5571
X3.6516Y-1.6752
X3.6634Y-1.998
X3.7106Y-1.5571
X3.7106Y-1.6752
X3.8219Y-1.6447
X3.8917Y-1.7067
X3.8996Y-1.565
X3.9075Y-1.8406
X3.9193Y-1.6319
T2
G00X2.5374Y-1.3898
M15
G01X2.4665Y-1.3898
M16
G05
G00X2.5374Y-1.8504
M15
G01X2.4665Y-1.8504
M16
G05
T0
M30
