G04 #@! TF.GenerationSoftware,KiCad,Pcbnew,5.1.5-52549c5~86~ubuntu16.04.1*
G04 #@! TF.CreationDate,2020-05-03T15:37:35+09:00*
G04 #@! TF.ProjectId,esp8266-cc2530,65737038-3236-4362-9d63-63323533302e,rev?*
G04 #@! TF.SameCoordinates,Original*
G04 #@! TF.FileFunction,Copper,L1,Top*
G04 #@! TF.FilePolarity,Positive*
%FSLAX46Y46*%
G04 Gerber Fmt 4.6, Leading zero omitted, Abs format (unit mm)*
G04 Created by KiCad (PCBNEW 5.1.5-52549c5~86~ubuntu16.04.1) date 2020-05-03 15:37:35*
%MOMM*%
%LPD*%
G04 APERTURE LIST*
%ADD10R,2.200000X1.270000*%
%ADD11O,3.200000X1.300000*%
%ADD12R,2.000000X1.200000*%
%ADD13R,4.000000X1.500000*%
%ADD14C,0.100000*%
%ADD15R,0.740000X2.400000*%
%ADD16C,0.800000*%
%ADD17C,0.500000*%
%ADD18C,0.250000*%
%ADD19C,1.000000*%
%ADD20C,0.254000*%
G04 APERTURE END LIST*
D10*
X95300000Y-45740000D03*
X95300000Y-40660000D03*
X95300000Y-35580000D03*
X92000000Y-48280000D03*
X92000000Y-43200000D03*
X92000000Y-38120000D03*
X69140000Y-48280000D03*
X69140000Y-43200000D03*
X69140000Y-38120000D03*
X72440000Y-45740000D03*
X72440000Y-40660000D03*
X72440000Y-35580000D03*
X92000000Y-33040000D03*
X95300000Y-30500000D03*
X69140000Y-33040000D03*
X72440000Y-30500000D03*
D11*
X63550000Y-35300000D03*
X63550000Y-47000000D03*
D12*
X66150000Y-37650000D03*
X66150000Y-40150000D03*
X66150000Y-42150000D03*
X66150000Y-44650000D03*
D13*
X101450000Y-38550000D03*
X101450000Y-43950000D03*
X101450000Y-41250000D03*
G04 #@! TA.AperFunction,SMDPad,CuDef*
D14*
G36*
X94430142Y-60388674D02*
G01*
X94453803Y-60392184D01*
X94477007Y-60397996D01*
X94499529Y-60406054D01*
X94521153Y-60416282D01*
X94541670Y-60428579D01*
X94560883Y-60442829D01*
X94578607Y-60458893D01*
X94594671Y-60476617D01*
X94608921Y-60495830D01*
X94621218Y-60516347D01*
X94631446Y-60537971D01*
X94639504Y-60560493D01*
X94645316Y-60583697D01*
X94648826Y-60607358D01*
X94650000Y-60631250D01*
X94650000Y-61118750D01*
X94648826Y-61142642D01*
X94645316Y-61166303D01*
X94639504Y-61189507D01*
X94631446Y-61212029D01*
X94621218Y-61233653D01*
X94608921Y-61254170D01*
X94594671Y-61273383D01*
X94578607Y-61291107D01*
X94560883Y-61307171D01*
X94541670Y-61321421D01*
X94521153Y-61333718D01*
X94499529Y-61343946D01*
X94477007Y-61352004D01*
X94453803Y-61357816D01*
X94430142Y-61361326D01*
X94406250Y-61362500D01*
X93493750Y-61362500D01*
X93469858Y-61361326D01*
X93446197Y-61357816D01*
X93422993Y-61352004D01*
X93400471Y-61343946D01*
X93378847Y-61333718D01*
X93358330Y-61321421D01*
X93339117Y-61307171D01*
X93321393Y-61291107D01*
X93305329Y-61273383D01*
X93291079Y-61254170D01*
X93278782Y-61233653D01*
X93268554Y-61212029D01*
X93260496Y-61189507D01*
X93254684Y-61166303D01*
X93251174Y-61142642D01*
X93250000Y-61118750D01*
X93250000Y-60631250D01*
X93251174Y-60607358D01*
X93254684Y-60583697D01*
X93260496Y-60560493D01*
X93268554Y-60537971D01*
X93278782Y-60516347D01*
X93291079Y-60495830D01*
X93305329Y-60476617D01*
X93321393Y-60458893D01*
X93339117Y-60442829D01*
X93358330Y-60428579D01*
X93378847Y-60416282D01*
X93400471Y-60406054D01*
X93422993Y-60397996D01*
X93446197Y-60392184D01*
X93469858Y-60388674D01*
X93493750Y-60387500D01*
X94406250Y-60387500D01*
X94430142Y-60388674D01*
G37*
G04 #@! TD.AperFunction*
G04 #@! TA.AperFunction,SMDPad,CuDef*
G36*
X94430142Y-58513674D02*
G01*
X94453803Y-58517184D01*
X94477007Y-58522996D01*
X94499529Y-58531054D01*
X94521153Y-58541282D01*
X94541670Y-58553579D01*
X94560883Y-58567829D01*
X94578607Y-58583893D01*
X94594671Y-58601617D01*
X94608921Y-58620830D01*
X94621218Y-58641347D01*
X94631446Y-58662971D01*
X94639504Y-58685493D01*
X94645316Y-58708697D01*
X94648826Y-58732358D01*
X94650000Y-58756250D01*
X94650000Y-59243750D01*
X94648826Y-59267642D01*
X94645316Y-59291303D01*
X94639504Y-59314507D01*
X94631446Y-59337029D01*
X94621218Y-59358653D01*
X94608921Y-59379170D01*
X94594671Y-59398383D01*
X94578607Y-59416107D01*
X94560883Y-59432171D01*
X94541670Y-59446421D01*
X94521153Y-59458718D01*
X94499529Y-59468946D01*
X94477007Y-59477004D01*
X94453803Y-59482816D01*
X94430142Y-59486326D01*
X94406250Y-59487500D01*
X93493750Y-59487500D01*
X93469858Y-59486326D01*
X93446197Y-59482816D01*
X93422993Y-59477004D01*
X93400471Y-59468946D01*
X93378847Y-59458718D01*
X93358330Y-59446421D01*
X93339117Y-59432171D01*
X93321393Y-59416107D01*
X93305329Y-59398383D01*
X93291079Y-59379170D01*
X93278782Y-59358653D01*
X93268554Y-59337029D01*
X93260496Y-59314507D01*
X93254684Y-59291303D01*
X93251174Y-59267642D01*
X93250000Y-59243750D01*
X93250000Y-58756250D01*
X93251174Y-58732358D01*
X93254684Y-58708697D01*
X93260496Y-58685493D01*
X93268554Y-58662971D01*
X93278782Y-58641347D01*
X93291079Y-58620830D01*
X93305329Y-58601617D01*
X93321393Y-58583893D01*
X93339117Y-58567829D01*
X93358330Y-58553579D01*
X93378847Y-58541282D01*
X93400471Y-58531054D01*
X93422993Y-58522996D01*
X93446197Y-58517184D01*
X93469858Y-58513674D01*
X93493750Y-58512500D01*
X94406250Y-58512500D01*
X94430142Y-58513674D01*
G37*
G04 #@! TD.AperFunction*
D15*
X91240000Y-55750000D03*
X91240000Y-59650000D03*
X89970000Y-55750000D03*
X89970000Y-59650000D03*
X88700000Y-55750000D03*
X88700000Y-59650000D03*
X87430000Y-55750000D03*
X87430000Y-59650000D03*
X86160000Y-55750000D03*
X86160000Y-59650000D03*
G04 #@! TA.AperFunction,SMDPad,CuDef*
D14*
G36*
X75442642Y-53901174D02*
G01*
X75466303Y-53904684D01*
X75489507Y-53910496D01*
X75512029Y-53918554D01*
X75533653Y-53928782D01*
X75554170Y-53941079D01*
X75573383Y-53955329D01*
X75591107Y-53971393D01*
X75607171Y-53989117D01*
X75621421Y-54008330D01*
X75633718Y-54028847D01*
X75643946Y-54050471D01*
X75652004Y-54072993D01*
X75657816Y-54096197D01*
X75661326Y-54119858D01*
X75662500Y-54143750D01*
X75662500Y-55056250D01*
X75661326Y-55080142D01*
X75657816Y-55103803D01*
X75652004Y-55127007D01*
X75643946Y-55149529D01*
X75633718Y-55171153D01*
X75621421Y-55191670D01*
X75607171Y-55210883D01*
X75591107Y-55228607D01*
X75573383Y-55244671D01*
X75554170Y-55258921D01*
X75533653Y-55271218D01*
X75512029Y-55281446D01*
X75489507Y-55289504D01*
X75466303Y-55295316D01*
X75442642Y-55298826D01*
X75418750Y-55300000D01*
X74931250Y-55300000D01*
X74907358Y-55298826D01*
X74883697Y-55295316D01*
X74860493Y-55289504D01*
X74837971Y-55281446D01*
X74816347Y-55271218D01*
X74795830Y-55258921D01*
X74776617Y-55244671D01*
X74758893Y-55228607D01*
X74742829Y-55210883D01*
X74728579Y-55191670D01*
X74716282Y-55171153D01*
X74706054Y-55149529D01*
X74697996Y-55127007D01*
X74692184Y-55103803D01*
X74688674Y-55080142D01*
X74687500Y-55056250D01*
X74687500Y-54143750D01*
X74688674Y-54119858D01*
X74692184Y-54096197D01*
X74697996Y-54072993D01*
X74706054Y-54050471D01*
X74716282Y-54028847D01*
X74728579Y-54008330D01*
X74742829Y-53989117D01*
X74758893Y-53971393D01*
X74776617Y-53955329D01*
X74795830Y-53941079D01*
X74816347Y-53928782D01*
X74837971Y-53918554D01*
X74860493Y-53910496D01*
X74883697Y-53904684D01*
X74907358Y-53901174D01*
X74931250Y-53900000D01*
X75418750Y-53900000D01*
X75442642Y-53901174D01*
G37*
G04 #@! TD.AperFunction*
G04 #@! TA.AperFunction,SMDPad,CuDef*
G36*
X77317642Y-53901174D02*
G01*
X77341303Y-53904684D01*
X77364507Y-53910496D01*
X77387029Y-53918554D01*
X77408653Y-53928782D01*
X77429170Y-53941079D01*
X77448383Y-53955329D01*
X77466107Y-53971393D01*
X77482171Y-53989117D01*
X77496421Y-54008330D01*
X77508718Y-54028847D01*
X77518946Y-54050471D01*
X77527004Y-54072993D01*
X77532816Y-54096197D01*
X77536326Y-54119858D01*
X77537500Y-54143750D01*
X77537500Y-55056250D01*
X77536326Y-55080142D01*
X77532816Y-55103803D01*
X77527004Y-55127007D01*
X77518946Y-55149529D01*
X77508718Y-55171153D01*
X77496421Y-55191670D01*
X77482171Y-55210883D01*
X77466107Y-55228607D01*
X77448383Y-55244671D01*
X77429170Y-55258921D01*
X77408653Y-55271218D01*
X77387029Y-55281446D01*
X77364507Y-55289504D01*
X77341303Y-55295316D01*
X77317642Y-55298826D01*
X77293750Y-55300000D01*
X76806250Y-55300000D01*
X76782358Y-55298826D01*
X76758697Y-55295316D01*
X76735493Y-55289504D01*
X76712971Y-55281446D01*
X76691347Y-55271218D01*
X76670830Y-55258921D01*
X76651617Y-55244671D01*
X76633893Y-55228607D01*
X76617829Y-55210883D01*
X76603579Y-55191670D01*
X76591282Y-55171153D01*
X76581054Y-55149529D01*
X76572996Y-55127007D01*
X76567184Y-55103803D01*
X76563674Y-55080142D01*
X76562500Y-55056250D01*
X76562500Y-54143750D01*
X76563674Y-54119858D01*
X76567184Y-54096197D01*
X76572996Y-54072993D01*
X76581054Y-54050471D01*
X76591282Y-54028847D01*
X76603579Y-54008330D01*
X76617829Y-53989117D01*
X76633893Y-53971393D01*
X76651617Y-53955329D01*
X76670830Y-53941079D01*
X76691347Y-53928782D01*
X76712971Y-53918554D01*
X76735493Y-53910496D01*
X76758697Y-53904684D01*
X76782358Y-53901174D01*
X76806250Y-53900000D01*
X77293750Y-53900000D01*
X77317642Y-53901174D01*
G37*
G04 #@! TD.AperFunction*
D16*
X99050000Y-39750000D03*
X98850000Y-43350000D03*
X70450000Y-36350000D03*
X66550000Y-35950000D03*
X82950000Y-38550000D03*
X81037500Y-36337500D03*
X82050000Y-41950000D03*
X81750000Y-45050000D03*
X78700000Y-54050000D03*
X86150000Y-53650000D03*
X92250000Y-57550010D03*
X73550000Y-37650034D03*
X71550000Y-37650000D03*
X88250000Y-42550000D03*
X89750000Y-42550000D03*
X91250000Y-42550000D03*
X92750000Y-42550000D03*
X94250000Y-42550000D03*
X94250000Y-39550000D03*
X92750000Y-39550000D03*
X92750000Y-38050000D03*
X91250000Y-38050000D03*
X86150000Y-37450000D03*
X87750000Y-43550000D03*
X89750000Y-38050000D03*
X78750000Y-52225000D03*
X81850000Y-49850000D03*
X86450000Y-44450000D03*
X92450000Y-45150000D03*
X99250000Y-46750000D03*
X97075000Y-41775000D03*
X77050000Y-38850000D03*
X77050000Y-38850000D03*
X77050000Y-41150000D03*
X87250000Y-31550000D03*
X88250000Y-32150000D03*
X84050000Y-36650004D03*
X72250000Y-44050000D03*
X79550000Y-40650000D03*
X79450000Y-38150000D03*
X82550000Y-32950000D03*
X73549998Y-33350000D03*
X81050000Y-31950000D03*
X69150000Y-35650000D03*
X83250000Y-60050000D03*
X84600000Y-57199994D03*
X83450000Y-58000000D03*
X82450000Y-30949990D03*
X79150000Y-30950000D03*
X99550000Y-41450000D03*
X66250000Y-48250000D03*
X93050000Y-50750000D03*
D17*
X80984315Y-36150000D02*
X79850000Y-36150000D01*
D18*
X80984315Y-36084315D02*
X80937500Y-36037500D01*
X80984315Y-36150000D02*
X80984315Y-36084315D01*
D19*
X78150000Y-54600000D02*
X78700000Y-54050000D01*
X77050000Y-54600000D02*
X78150000Y-54600000D01*
D17*
X86160000Y-53660000D02*
X86150000Y-53650000D01*
X86160000Y-55750000D02*
X86160000Y-53660000D01*
D18*
X78050000Y-36050000D02*
X78050000Y-36150000D01*
D17*
X78050000Y-37891996D02*
X78050000Y-36050000D01*
X79591998Y-41950000D02*
X78050000Y-40408002D01*
X82050000Y-41950000D02*
X79591998Y-41950000D01*
X78050000Y-39150000D02*
X78050000Y-37891996D01*
X78050000Y-40408002D02*
X78050000Y-39150000D01*
X78150000Y-39050000D02*
X78050000Y-39150000D01*
X82450000Y-39050000D02*
X78150000Y-39050000D01*
X82950000Y-38550000D02*
X82450000Y-39050000D01*
D19*
X75350000Y-37650000D02*
X73550000Y-37650000D01*
X76950000Y-36050000D02*
X75350000Y-37650000D01*
X78050000Y-36050000D02*
X76950000Y-36050000D01*
X81037500Y-36337500D02*
X81037500Y-36137500D01*
X80850000Y-36150000D02*
X81037500Y-36337500D01*
X78050000Y-36150000D02*
X80850000Y-36150000D01*
D17*
X92500010Y-57550010D02*
X92250000Y-57550010D01*
X93950000Y-59000000D02*
X92500010Y-57550010D01*
X81650000Y-44950000D02*
X81750000Y-45050000D01*
D19*
X73550000Y-37650000D02*
X73550000Y-37650034D01*
X73550000Y-37650000D02*
X71550000Y-37650000D01*
X81750000Y-42250000D02*
X82050000Y-41950000D01*
X81750000Y-45050000D02*
X81750000Y-42250000D01*
D17*
X91240000Y-59650000D02*
X91240000Y-60340000D01*
X91775000Y-60875000D02*
X93950000Y-60875000D01*
X91240000Y-60340000D02*
X91775000Y-60875000D01*
X89970000Y-59650000D02*
X89970000Y-61350000D01*
X89970000Y-61350000D02*
X89570000Y-61750000D01*
X84950000Y-61750000D02*
X83250000Y-60050000D01*
X89570000Y-61750000D02*
X84950000Y-61750000D01*
X72975002Y-31950000D02*
X76150000Y-31950000D01*
X76150000Y-31950000D02*
X81050000Y-31950000D01*
X72850000Y-31950000D02*
X72975002Y-31950000D01*
X69150000Y-35650000D02*
X72850000Y-31950000D01*
D18*
X87430000Y-55750000D02*
X87430000Y-57200000D01*
X87430000Y-57200000D02*
X87130000Y-57500000D01*
X87130000Y-57500000D02*
X84900000Y-57500000D01*
X84900000Y-57499994D02*
X84600000Y-57199994D01*
X84900000Y-57500000D02*
X84900000Y-57499994D01*
X84015685Y-58000000D02*
X83450000Y-58000000D01*
X87430000Y-59650000D02*
X87430000Y-58200000D01*
X87430000Y-58200000D02*
X87230000Y-58000000D01*
X87230000Y-58000000D02*
X84015685Y-58000000D01*
D19*
X75175000Y-53900000D02*
X75175000Y-54600000D01*
X75175000Y-52215000D02*
X75175000Y-53900000D01*
X71240000Y-48280000D02*
X75175000Y-52215000D01*
X69140000Y-48280000D02*
X71240000Y-48280000D01*
D18*
X82849999Y-30549991D02*
X82450000Y-30949990D01*
X83249990Y-30150000D02*
X82849999Y-30549991D01*
X94765000Y-30150000D02*
X83249990Y-30150000D01*
X95300000Y-29615000D02*
X94765000Y-30150000D01*
X92000000Y-31350000D02*
X92000000Y-33040000D01*
X91550000Y-30650000D02*
X92000000Y-31100000D01*
X92000000Y-31100000D02*
X92000000Y-33040000D01*
X83850000Y-30650000D02*
X91550000Y-30650000D01*
X79150000Y-30950000D02*
X81123002Y-30950000D01*
X81123002Y-30950000D02*
X81847993Y-31674991D01*
X81847993Y-31674991D02*
X82825009Y-31674991D01*
X82825009Y-31674991D02*
X83850000Y-30650000D01*
D19*
X101600000Y-41450000D02*
X100115685Y-41450000D01*
X100115685Y-41450000D02*
X99550000Y-41450000D01*
X101850000Y-41200000D02*
X101600000Y-41450000D01*
X92000000Y-48280000D02*
X92080000Y-48280000D01*
X66150000Y-44650000D02*
X66150000Y-48285002D01*
X66214998Y-48285002D02*
X66250000Y-48250000D01*
X66150000Y-48285002D02*
X66214998Y-48285002D01*
X93050000Y-49330000D02*
X92000000Y-48280000D01*
X93050000Y-50750000D02*
X93050000Y-49330000D01*
D20*
G36*
X94698421Y-29435934D02*
G01*
X94200000Y-29435934D01*
X94116293Y-29444178D01*
X94035804Y-29468595D01*
X93961624Y-29508245D01*
X93896605Y-29561605D01*
X93866736Y-29598000D01*
X83277098Y-29598000D01*
X83249990Y-29595330D01*
X83222881Y-29598000D01*
X83141779Y-29605988D01*
X83037727Y-29637552D01*
X82941832Y-29688809D01*
X82857779Y-29757789D01*
X82840498Y-29778846D01*
X82496356Y-30122990D01*
X82368548Y-30122990D01*
X82208773Y-30154772D01*
X82058269Y-30217113D01*
X81922819Y-30307618D01*
X81807628Y-30422809D01*
X81717123Y-30558259D01*
X81657016Y-30703370D01*
X81532502Y-30578856D01*
X81515213Y-30557789D01*
X81431160Y-30488809D01*
X81335265Y-30437552D01*
X81231213Y-30405988D01*
X81150111Y-30398000D01*
X81150108Y-30398000D01*
X81123002Y-30395330D01*
X81095896Y-30398000D01*
X79767553Y-30398000D01*
X79677181Y-30307628D01*
X79541731Y-30217123D01*
X79391227Y-30154782D01*
X79231452Y-30123000D01*
X79068548Y-30123000D01*
X78908773Y-30154782D01*
X78758269Y-30217123D01*
X78622819Y-30307628D01*
X78507628Y-30422819D01*
X78417123Y-30558269D01*
X78354782Y-30708773D01*
X78323000Y-30868548D01*
X78323000Y-31031452D01*
X78354782Y-31191227D01*
X78388654Y-31273000D01*
X73944352Y-31273000D01*
X73960822Y-31218707D01*
X73969066Y-31135000D01*
X73969066Y-29865000D01*
X73960822Y-29781293D01*
X73936405Y-29700804D01*
X73896755Y-29626624D01*
X73843395Y-29561605D01*
X73778376Y-29508245D01*
X73704196Y-29468595D01*
X73623707Y-29444178D01*
X73540000Y-29435934D01*
X71340000Y-29435934D01*
X71256293Y-29444178D01*
X71175804Y-29468595D01*
X71101624Y-29508245D01*
X71036605Y-29561605D01*
X70983245Y-29626624D01*
X70943595Y-29700804D01*
X70919178Y-29781293D01*
X70910934Y-29865000D01*
X70910934Y-31135000D01*
X70919178Y-31218707D01*
X70943595Y-31299196D01*
X70983245Y-31373376D01*
X71036605Y-31438395D01*
X71101624Y-31491755D01*
X71175804Y-31531405D01*
X71256293Y-31555822D01*
X71340000Y-31564066D01*
X72278512Y-31564066D01*
X70669066Y-33173512D01*
X70669066Y-32405000D01*
X70660822Y-32321293D01*
X70636405Y-32240804D01*
X70596755Y-32166624D01*
X70543395Y-32101605D01*
X70478376Y-32048245D01*
X70404196Y-32008595D01*
X70323707Y-31984178D01*
X70240000Y-31975934D01*
X68040000Y-31975934D01*
X67956293Y-31984178D01*
X67875804Y-32008595D01*
X67801624Y-32048245D01*
X67736605Y-32101605D01*
X67683245Y-32166624D01*
X67643595Y-32240804D01*
X67619178Y-32321293D01*
X67610934Y-32405000D01*
X67610934Y-33675000D01*
X67619178Y-33758707D01*
X67643595Y-33839196D01*
X67683245Y-33913376D01*
X67736605Y-33978395D01*
X67801624Y-34031755D01*
X67875804Y-34071405D01*
X67956293Y-34095822D01*
X68040000Y-34104066D01*
X69738512Y-34104066D01*
X69007418Y-34835160D01*
X68908773Y-34854782D01*
X68758269Y-34917123D01*
X68622819Y-35007628D01*
X68507628Y-35122819D01*
X68417123Y-35258269D01*
X68354782Y-35408773D01*
X68323000Y-35568548D01*
X68323000Y-35731452D01*
X68354782Y-35891227D01*
X68417123Y-36041731D01*
X68507628Y-36177181D01*
X68622819Y-36292372D01*
X68758269Y-36382877D01*
X68908773Y-36445218D01*
X69068548Y-36477000D01*
X69231452Y-36477000D01*
X69391227Y-36445218D01*
X69541731Y-36382877D01*
X69677181Y-36292372D01*
X69792372Y-36177181D01*
X69882877Y-36041731D01*
X69945218Y-35891227D01*
X69964840Y-35792582D01*
X70929215Y-34828207D01*
X70919178Y-34861293D01*
X70910934Y-34945000D01*
X70910934Y-36215000D01*
X70919178Y-36298707D01*
X70943595Y-36379196D01*
X70983245Y-36453376D01*
X71036605Y-36518395D01*
X71101624Y-36571755D01*
X71175804Y-36611405D01*
X71256293Y-36635822D01*
X71340000Y-36644066D01*
X73540000Y-36644066D01*
X73623707Y-36635822D01*
X73704196Y-36611405D01*
X73778376Y-36571755D01*
X73843395Y-36518395D01*
X73896755Y-36453376D01*
X73936405Y-36379196D01*
X73960822Y-36298707D01*
X73969066Y-36215000D01*
X73969066Y-34945000D01*
X73960822Y-34861293D01*
X73936405Y-34780804D01*
X73896755Y-34706624D01*
X73843395Y-34641605D01*
X73778376Y-34588245D01*
X73704196Y-34548595D01*
X73623707Y-34524178D01*
X73540000Y-34515934D01*
X71340000Y-34515934D01*
X71256293Y-34524178D01*
X71223207Y-34534215D01*
X73130422Y-32627000D01*
X80574643Y-32627000D01*
X80658269Y-32682877D01*
X80808773Y-32745218D01*
X80968548Y-32777000D01*
X81131452Y-32777000D01*
X81291227Y-32745218D01*
X81441731Y-32682877D01*
X81577181Y-32592372D01*
X81692372Y-32477181D01*
X81782877Y-32341731D01*
X81830031Y-32227892D01*
X81847992Y-32229661D01*
X81875098Y-32226991D01*
X82797903Y-32226991D01*
X82825009Y-32229661D01*
X82852115Y-32226991D01*
X82852118Y-32226991D01*
X82933220Y-32219003D01*
X83037272Y-32187439D01*
X83133167Y-32136182D01*
X83217220Y-32067202D01*
X83234509Y-32046135D01*
X84078646Y-31202000D01*
X91321355Y-31202000D01*
X91448000Y-31328645D01*
X91448000Y-31975934D01*
X90900000Y-31975934D01*
X90816293Y-31984178D01*
X90735804Y-32008595D01*
X90661624Y-32048245D01*
X90596605Y-32101605D01*
X90543245Y-32166624D01*
X90503595Y-32240804D01*
X90479178Y-32321293D01*
X90470934Y-32405000D01*
X90470934Y-33675000D01*
X90479178Y-33758707D01*
X90503595Y-33839196D01*
X90543245Y-33913376D01*
X90596605Y-33978395D01*
X90661624Y-34031755D01*
X90735804Y-34071405D01*
X90816293Y-34095822D01*
X90900000Y-34104066D01*
X93100000Y-34104066D01*
X93183707Y-34095822D01*
X93264196Y-34071405D01*
X93338376Y-34031755D01*
X93403395Y-33978395D01*
X93456755Y-33913376D01*
X93496405Y-33839196D01*
X93520822Y-33758707D01*
X93529066Y-33675000D01*
X93529066Y-32405000D01*
X93520822Y-32321293D01*
X93496405Y-32240804D01*
X93456755Y-32166624D01*
X93403395Y-32101605D01*
X93338376Y-32048245D01*
X93264196Y-32008595D01*
X93183707Y-31984178D01*
X93100000Y-31975934D01*
X92552000Y-31975934D01*
X92552000Y-31127105D01*
X92554670Y-31099999D01*
X92552000Y-31072891D01*
X92544012Y-30991789D01*
X92512448Y-30887737D01*
X92461191Y-30791842D01*
X92392211Y-30707789D01*
X92385157Y-30702000D01*
X93770934Y-30702000D01*
X93770934Y-31135000D01*
X93779178Y-31218707D01*
X93803595Y-31299196D01*
X93843245Y-31373376D01*
X93896605Y-31438395D01*
X93961624Y-31491755D01*
X94035804Y-31531405D01*
X94116293Y-31555822D01*
X94200000Y-31564066D01*
X96400000Y-31564066D01*
X96483707Y-31555822D01*
X96564196Y-31531405D01*
X96638376Y-31491755D01*
X96703395Y-31438395D01*
X96756755Y-31373376D01*
X96796405Y-31299196D01*
X96820822Y-31218707D01*
X96829066Y-31135000D01*
X96829066Y-29865000D01*
X96820822Y-29781293D01*
X96796405Y-29700804D01*
X96756755Y-29626624D01*
X96703395Y-29561605D01*
X96638376Y-29508245D01*
X96564196Y-29468595D01*
X96483707Y-29444178D01*
X96400000Y-29435934D01*
X95822517Y-29435934D01*
X95812447Y-29402738D01*
X95761191Y-29306843D01*
X95736699Y-29277000D01*
X103323001Y-29277000D01*
X103323001Y-40070934D01*
X99450000Y-40070934D01*
X99366293Y-40079178D01*
X99285804Y-40103595D01*
X99211624Y-40143245D01*
X99146605Y-40196605D01*
X99093245Y-40261624D01*
X99053595Y-40335804D01*
X99029178Y-40416293D01*
X99020934Y-40500000D01*
X99020934Y-40684987D01*
X98891341Y-40791341D01*
X98775499Y-40932495D01*
X98689420Y-41093536D01*
X98636413Y-41268276D01*
X98618515Y-41450000D01*
X98636413Y-41631724D01*
X98689420Y-41806464D01*
X98775499Y-41967505D01*
X98891341Y-42108659D01*
X99032495Y-42224501D01*
X99120434Y-42271506D01*
X99146605Y-42303395D01*
X99211624Y-42356755D01*
X99285804Y-42396405D01*
X99366293Y-42420822D01*
X99450000Y-42429066D01*
X103323000Y-42429066D01*
X103323000Y-56423000D01*
X100824119Y-56423000D01*
X100800027Y-56425373D01*
X100781292Y-56425242D01*
X100773969Y-56425960D01*
X100191680Y-56487161D01*
X100144940Y-56496756D01*
X100097972Y-56505715D01*
X100090928Y-56507842D01*
X99531614Y-56680979D01*
X99487610Y-56699477D01*
X99443296Y-56717381D01*
X99436799Y-56720836D01*
X98921768Y-56999312D01*
X98882217Y-57025989D01*
X98842200Y-57052176D01*
X98836498Y-57056827D01*
X98385365Y-57430037D01*
X98351715Y-57463923D01*
X98317583Y-57497347D01*
X98312893Y-57503017D01*
X97942840Y-57956745D01*
X97916420Y-57996511D01*
X97889422Y-58035941D01*
X97885923Y-58042414D01*
X97611048Y-58559378D01*
X97592850Y-58603532D01*
X97574030Y-58647441D01*
X97571854Y-58654470D01*
X97402628Y-59214978D01*
X97393360Y-59261783D01*
X97383419Y-59308553D01*
X97382650Y-59315871D01*
X97325515Y-59898573D01*
X97325515Y-59898594D01*
X97323001Y-59924119D01*
X97323000Y-62423000D01*
X89643866Y-62423000D01*
X89702715Y-62417204D01*
X89830330Y-62378492D01*
X89947941Y-62315628D01*
X90051027Y-62231027D01*
X90072227Y-62205195D01*
X90425191Y-61852231D01*
X90451027Y-61831027D01*
X90535628Y-61727941D01*
X90598492Y-61610330D01*
X90637204Y-61482715D01*
X90647000Y-61383252D01*
X90647000Y-61383243D01*
X90650274Y-61350001D01*
X90647000Y-61316759D01*
X90647000Y-61214974D01*
X90705804Y-61246405D01*
X90786293Y-61270822D01*
X90870000Y-61279066D01*
X91221644Y-61279066D01*
X91272774Y-61330196D01*
X91293973Y-61356027D01*
X91397059Y-61440628D01*
X91514670Y-61503492D01*
X91642285Y-61542204D01*
X91741748Y-61552000D01*
X91741757Y-61552000D01*
X91774999Y-61555274D01*
X91808241Y-61552000D01*
X92983116Y-61552000D01*
X93017997Y-61594503D01*
X93119953Y-61678176D01*
X93236274Y-61740351D01*
X93362490Y-61778638D01*
X93493750Y-61791566D01*
X94406250Y-61791566D01*
X94537510Y-61778638D01*
X94663726Y-61740351D01*
X94780047Y-61678176D01*
X94882003Y-61594503D01*
X94965676Y-61492547D01*
X95027851Y-61376226D01*
X95066138Y-61250010D01*
X95079066Y-61118750D01*
X95079066Y-60631250D01*
X95066138Y-60499990D01*
X95027851Y-60373774D01*
X94965676Y-60257453D01*
X94882003Y-60155497D01*
X94780047Y-60071824D01*
X94663726Y-60009649D01*
X94537510Y-59971362D01*
X94406250Y-59958434D01*
X93493750Y-59958434D01*
X93362490Y-59971362D01*
X93236274Y-60009649D01*
X93119953Y-60071824D01*
X93017997Y-60155497D01*
X92983116Y-60198000D01*
X92055422Y-60198000D01*
X92039066Y-60181644D01*
X92039066Y-58450000D01*
X92030822Y-58366293D01*
X92025437Y-58348543D01*
X92168548Y-58377010D01*
X92331452Y-58377010D01*
X92363260Y-58370683D01*
X92820934Y-58828357D01*
X92820934Y-59243750D01*
X92833862Y-59375010D01*
X92872149Y-59501226D01*
X92934324Y-59617547D01*
X93017997Y-59719503D01*
X93119953Y-59803176D01*
X93236274Y-59865351D01*
X93362490Y-59903638D01*
X93493750Y-59916566D01*
X94406250Y-59916566D01*
X94537510Y-59903638D01*
X94663726Y-59865351D01*
X94780047Y-59803176D01*
X94882003Y-59719503D01*
X94965676Y-59617547D01*
X95027851Y-59501226D01*
X95066138Y-59375010D01*
X95079066Y-59243750D01*
X95079066Y-58756250D01*
X95066138Y-58624990D01*
X95027851Y-58498774D01*
X94965676Y-58382453D01*
X94882003Y-58280497D01*
X94780047Y-58196824D01*
X94663726Y-58134649D01*
X94537510Y-58096362D01*
X94406250Y-58083434D01*
X93990857Y-58083434D01*
X93002236Y-57094814D01*
X92981037Y-57068983D01*
X92877951Y-56984382D01*
X92826337Y-56956794D01*
X92777181Y-56907638D01*
X92641731Y-56817133D01*
X92491227Y-56754792D01*
X92331452Y-56723010D01*
X92168548Y-56723010D01*
X92039066Y-56748766D01*
X92039066Y-55288566D01*
X94710931Y-55288566D01*
X94710931Y-55611434D01*
X94773919Y-55928099D01*
X94897476Y-56226390D01*
X95076852Y-56494846D01*
X95305154Y-56723148D01*
X95573610Y-56902524D01*
X95871901Y-57026081D01*
X96188566Y-57089069D01*
X96511434Y-57089069D01*
X96828099Y-57026081D01*
X97126390Y-56902524D01*
X97394846Y-56723148D01*
X97623148Y-56494846D01*
X97802524Y-56226390D01*
X97926081Y-55928099D01*
X97989069Y-55611434D01*
X97989069Y-55288566D01*
X97926081Y-54971901D01*
X97802524Y-54673610D01*
X97623148Y-54405154D01*
X97394846Y-54176852D01*
X97126390Y-53997476D01*
X96828099Y-53873919D01*
X96511434Y-53810931D01*
X96188566Y-53810931D01*
X95871901Y-53873919D01*
X95573610Y-53997476D01*
X95305154Y-54176852D01*
X95076852Y-54405154D01*
X94897476Y-54673610D01*
X94773919Y-54971901D01*
X94710931Y-55288566D01*
X92039066Y-55288566D01*
X92039066Y-54550000D01*
X92030822Y-54466293D01*
X92006405Y-54385804D01*
X91966755Y-54311624D01*
X91913395Y-54246605D01*
X91848376Y-54193245D01*
X91774196Y-54153595D01*
X91693707Y-54129178D01*
X91610000Y-54120934D01*
X90870000Y-54120934D01*
X90786293Y-54129178D01*
X90705804Y-54153595D01*
X90631624Y-54193245D01*
X90605000Y-54215095D01*
X90578376Y-54193245D01*
X90504196Y-54153595D01*
X90423707Y-54129178D01*
X90340000Y-54120934D01*
X89600000Y-54120934D01*
X89516293Y-54129178D01*
X89435804Y-54153595D01*
X89361624Y-54193245D01*
X89335000Y-54215095D01*
X89308376Y-54193245D01*
X89234196Y-54153595D01*
X89153707Y-54129178D01*
X89070000Y-54120934D01*
X88330000Y-54120934D01*
X88246293Y-54129178D01*
X88165804Y-54153595D01*
X88091624Y-54193245D01*
X88065000Y-54215095D01*
X88038376Y-54193245D01*
X87964196Y-54153595D01*
X87883707Y-54129178D01*
X87800000Y-54120934D01*
X87060000Y-54120934D01*
X86976293Y-54129178D01*
X86895804Y-54153595D01*
X86837000Y-54185026D01*
X86837000Y-54110391D01*
X86882877Y-54041731D01*
X86945218Y-53891227D01*
X86977000Y-53731452D01*
X86977000Y-53568548D01*
X86945218Y-53408773D01*
X86882877Y-53258269D01*
X86792372Y-53122819D01*
X86677181Y-53007628D01*
X86541731Y-52917123D01*
X86391227Y-52854782D01*
X86231452Y-52823000D01*
X86068548Y-52823000D01*
X85908773Y-52854782D01*
X85758269Y-52917123D01*
X85622819Y-53007628D01*
X85507628Y-53122819D01*
X85417123Y-53258269D01*
X85354782Y-53408773D01*
X85323000Y-53568548D01*
X85323000Y-53731452D01*
X85354782Y-53891227D01*
X85417123Y-54041731D01*
X85483001Y-54140324D01*
X85483001Y-54250997D01*
X85433245Y-54311624D01*
X85393595Y-54385804D01*
X85369178Y-54466293D01*
X85360934Y-54550000D01*
X85360934Y-56875998D01*
X85332877Y-56808263D01*
X85242372Y-56672813D01*
X85127181Y-56557622D01*
X84991731Y-56467117D01*
X84841227Y-56404776D01*
X84681452Y-56372994D01*
X84518548Y-56372994D01*
X84358773Y-56404776D01*
X84208269Y-56467117D01*
X84072819Y-56557622D01*
X83957628Y-56672813D01*
X83867123Y-56808263D01*
X83804782Y-56958767D01*
X83773000Y-57118542D01*
X83773000Y-57238654D01*
X83691227Y-57204782D01*
X83531452Y-57173000D01*
X83368548Y-57173000D01*
X83208773Y-57204782D01*
X83058269Y-57267123D01*
X82922819Y-57357628D01*
X82807628Y-57472819D01*
X82717123Y-57608269D01*
X82654782Y-57758773D01*
X82623000Y-57918548D01*
X82623000Y-58081452D01*
X82654782Y-58241227D01*
X82717123Y-58391731D01*
X82807628Y-58527181D01*
X82922819Y-58642372D01*
X83058269Y-58732877D01*
X83208773Y-58795218D01*
X83368548Y-58827000D01*
X83531452Y-58827000D01*
X83691227Y-58795218D01*
X83841731Y-58732877D01*
X83977181Y-58642372D01*
X84067553Y-58552000D01*
X86630934Y-58552000D01*
X86630934Y-60850000D01*
X86639178Y-60933707D01*
X86663595Y-61014196D01*
X86695026Y-61073000D01*
X85230422Y-61073000D01*
X84064840Y-59907418D01*
X84045218Y-59808773D01*
X83982877Y-59658269D01*
X83892372Y-59522819D01*
X83777181Y-59407628D01*
X83641731Y-59317123D01*
X83491227Y-59254782D01*
X83331452Y-59223000D01*
X83168548Y-59223000D01*
X83008773Y-59254782D01*
X82858269Y-59317123D01*
X82722819Y-59407628D01*
X82607628Y-59522819D01*
X82517123Y-59658269D01*
X82454782Y-59808773D01*
X82423000Y-59968548D01*
X82423000Y-60131452D01*
X82454782Y-60291227D01*
X82517123Y-60441731D01*
X82607628Y-60577181D01*
X82722819Y-60692372D01*
X82858269Y-60782877D01*
X83008773Y-60845218D01*
X83107418Y-60864840D01*
X84447774Y-62205196D01*
X84468973Y-62231027D01*
X84572059Y-62315628D01*
X84689670Y-62378492D01*
X84817285Y-62417204D01*
X84876134Y-62423000D01*
X67377000Y-62423000D01*
X67377000Y-59924119D01*
X67374627Y-59900027D01*
X67374758Y-59881292D01*
X67374040Y-59873969D01*
X67312839Y-59291680D01*
X67303244Y-59244940D01*
X67294285Y-59197972D01*
X67292158Y-59190928D01*
X67119021Y-58631614D01*
X67100523Y-58587610D01*
X67082619Y-58543296D01*
X67079164Y-58536799D01*
X66800688Y-58021768D01*
X66774011Y-57982217D01*
X66747824Y-57942200D01*
X66743173Y-57936498D01*
X66369963Y-57485365D01*
X66336077Y-57451715D01*
X66302653Y-57417583D01*
X66296983Y-57412893D01*
X65843255Y-57042840D01*
X65803489Y-57016420D01*
X65764059Y-56989422D01*
X65757586Y-56985923D01*
X65240622Y-56711048D01*
X65196468Y-56692850D01*
X65152559Y-56674030D01*
X65145530Y-56671854D01*
X64585022Y-56502628D01*
X64538217Y-56493360D01*
X64491447Y-56483419D01*
X64484129Y-56482650D01*
X63901427Y-56425515D01*
X63901417Y-56425515D01*
X63875881Y-56423000D01*
X61377000Y-56423000D01*
X61377000Y-55288566D01*
X66710931Y-55288566D01*
X66710931Y-55611434D01*
X66773919Y-55928099D01*
X66897476Y-56226390D01*
X67076852Y-56494846D01*
X67305154Y-56723148D01*
X67573610Y-56902524D01*
X67871901Y-57026081D01*
X68188566Y-57089069D01*
X68511434Y-57089069D01*
X68828099Y-57026081D01*
X69126390Y-56902524D01*
X69394846Y-56723148D01*
X69623148Y-56494846D01*
X69802524Y-56226390D01*
X69926081Y-55928099D01*
X69989069Y-55611434D01*
X69989069Y-55288566D01*
X69926081Y-54971901D01*
X69802524Y-54673610D01*
X69623148Y-54405154D01*
X69394846Y-54176852D01*
X69126390Y-53997476D01*
X68828099Y-53873919D01*
X68511434Y-53810931D01*
X68188566Y-53810931D01*
X67871901Y-53873919D01*
X67573610Y-53997476D01*
X67305154Y-54176852D01*
X67076852Y-54405154D01*
X66897476Y-54673610D01*
X66773919Y-54971901D01*
X66710931Y-55288566D01*
X61377000Y-55288566D01*
X61377000Y-47526461D01*
X61660443Y-47526461D01*
X61691513Y-47688265D01*
X61843243Y-47852277D01*
X62024055Y-47983537D01*
X62227000Y-48077000D01*
X63177000Y-48077000D01*
X63177000Y-47373000D01*
X61704313Y-47373000D01*
X61660443Y-47526461D01*
X61377000Y-47526461D01*
X61377000Y-46473539D01*
X61660443Y-46473539D01*
X61704313Y-46627000D01*
X63177000Y-46627000D01*
X63177000Y-45923000D01*
X63923000Y-45923000D01*
X63923000Y-46627000D01*
X63943000Y-46627000D01*
X63943000Y-47373000D01*
X63923000Y-47373000D01*
X63923000Y-48077000D01*
X64873000Y-48077000D01*
X65075945Y-47983537D01*
X65223001Y-47876782D01*
X65223001Y-48239454D01*
X65218515Y-48285002D01*
X65236413Y-48466726D01*
X65289420Y-48641466D01*
X65375499Y-48802507D01*
X65491341Y-48943661D01*
X65632495Y-49059503D01*
X65793536Y-49145582D01*
X65968276Y-49198589D01*
X66104462Y-49212002D01*
X66104463Y-49212002D01*
X66150000Y-49216487D01*
X66182504Y-49213286D01*
X66214998Y-49216486D01*
X66260525Y-49212002D01*
X66260536Y-49212002D01*
X66396722Y-49198589D01*
X66571462Y-49145582D01*
X66732503Y-49059503D01*
X66873657Y-48943661D01*
X66902686Y-48908289D01*
X66937688Y-48873287D01*
X67024501Y-48767505D01*
X67110579Y-48606464D01*
X67163585Y-48431723D01*
X67181484Y-48250001D01*
X67163585Y-48068277D01*
X67110579Y-47893537D01*
X67077000Y-47830715D01*
X67077000Y-47645000D01*
X67610934Y-47645000D01*
X67610934Y-48915000D01*
X67619178Y-48998707D01*
X67643595Y-49079196D01*
X67683245Y-49153376D01*
X67736605Y-49218395D01*
X67801624Y-49271755D01*
X67875804Y-49311405D01*
X67956293Y-49335822D01*
X68040000Y-49344066D01*
X70240000Y-49344066D01*
X70323707Y-49335822D01*
X70404196Y-49311405D01*
X70478376Y-49271755D01*
X70543395Y-49218395D01*
X70552747Y-49207000D01*
X70856025Y-49207000D01*
X74248000Y-52598976D01*
X74248001Y-53854453D01*
X74248000Y-53854463D01*
X74248000Y-54645538D01*
X74258434Y-54751477D01*
X74258434Y-55056250D01*
X74271362Y-55187510D01*
X74309649Y-55313726D01*
X74371824Y-55430047D01*
X74455497Y-55532003D01*
X74557453Y-55615676D01*
X74673774Y-55677851D01*
X74799990Y-55716138D01*
X74931250Y-55729066D01*
X75418750Y-55729066D01*
X75550010Y-55716138D01*
X75676226Y-55677851D01*
X75792547Y-55615676D01*
X75894503Y-55532003D01*
X75978176Y-55430047D01*
X76040351Y-55313726D01*
X76078638Y-55187510D01*
X76091566Y-55056250D01*
X76091566Y-54751477D01*
X76102000Y-54645538D01*
X76102000Y-54600000D01*
X76118515Y-54600000D01*
X76133434Y-54751477D01*
X76133434Y-55056250D01*
X76146362Y-55187510D01*
X76184649Y-55313726D01*
X76246824Y-55430047D01*
X76330497Y-55532003D01*
X76432453Y-55615676D01*
X76548774Y-55677851D01*
X76674990Y-55716138D01*
X76806250Y-55729066D01*
X77293750Y-55729066D01*
X77425010Y-55716138D01*
X77551226Y-55677851D01*
X77667547Y-55615676D01*
X77769503Y-55532003D01*
X77773609Y-55527000D01*
X78104473Y-55527000D01*
X78150000Y-55531484D01*
X78195527Y-55527000D01*
X78195538Y-55527000D01*
X78331724Y-55513587D01*
X78506464Y-55460580D01*
X78667505Y-55374501D01*
X78808659Y-55258659D01*
X78837688Y-55223287D01*
X79387687Y-54673288D01*
X79474501Y-54567506D01*
X79560579Y-54406465D01*
X79613585Y-54231724D01*
X79631484Y-54050001D01*
X79613585Y-53868277D01*
X79560579Y-53693537D01*
X79474501Y-53532496D01*
X79358659Y-53391341D01*
X79217504Y-53275499D01*
X79056463Y-53189421D01*
X78881723Y-53136415D01*
X78699999Y-53118516D01*
X78518276Y-53136415D01*
X78343535Y-53189421D01*
X78182494Y-53275499D01*
X78076712Y-53362313D01*
X77770190Y-53668835D01*
X77769503Y-53667997D01*
X77667547Y-53584324D01*
X77551226Y-53522149D01*
X77425010Y-53483862D01*
X77293750Y-53470934D01*
X76806250Y-53470934D01*
X76674990Y-53483862D01*
X76548774Y-53522149D01*
X76432453Y-53584324D01*
X76330497Y-53667997D01*
X76246824Y-53769953D01*
X76184649Y-53886274D01*
X76146362Y-54012490D01*
X76133434Y-54143750D01*
X76133434Y-54448523D01*
X76118515Y-54600000D01*
X76102000Y-54600000D01*
X76102000Y-52260524D01*
X76106484Y-52214999D01*
X76102000Y-52169474D01*
X76102000Y-52169462D01*
X76088587Y-52033276D01*
X76035580Y-51858536D01*
X75949502Y-51697496D01*
X75949501Y-51697494D01*
X75862687Y-51591711D01*
X75862684Y-51591708D01*
X75833659Y-51556341D01*
X75798293Y-51527318D01*
X71927688Y-47656713D01*
X71918076Y-47645000D01*
X90470934Y-47645000D01*
X90470934Y-48915000D01*
X90479178Y-48998707D01*
X90503595Y-49079196D01*
X90543245Y-49153376D01*
X90596605Y-49218395D01*
X90661624Y-49271755D01*
X90735804Y-49311405D01*
X90816293Y-49335822D01*
X90900000Y-49344066D01*
X91753091Y-49344066D01*
X92123001Y-49713976D01*
X92123000Y-50795537D01*
X92136413Y-50931723D01*
X92189420Y-51106463D01*
X92275499Y-51267504D01*
X92391341Y-51408659D01*
X92532495Y-51524501D01*
X92693536Y-51610580D01*
X92868276Y-51663587D01*
X93050000Y-51681485D01*
X93231723Y-51663587D01*
X93406463Y-51610580D01*
X93567504Y-51524501D01*
X93708659Y-51408659D01*
X93824501Y-51267505D01*
X93910580Y-51106464D01*
X93963587Y-50931724D01*
X93977000Y-50795538D01*
X93977000Y-49375526D01*
X93981484Y-49329999D01*
X93977000Y-49284472D01*
X93977000Y-49284462D01*
X93963587Y-49148276D01*
X93910580Y-48973536D01*
X93856995Y-48873287D01*
X93824501Y-48812494D01*
X93737688Y-48706712D01*
X93737684Y-48706708D01*
X93708659Y-48671341D01*
X93673292Y-48642316D01*
X93529066Y-48498090D01*
X93529066Y-47645000D01*
X93520822Y-47561293D01*
X93496405Y-47480804D01*
X93456755Y-47406624D01*
X93403395Y-47341605D01*
X93338376Y-47288245D01*
X93264196Y-47248595D01*
X93183707Y-47224178D01*
X93100000Y-47215934D01*
X90900000Y-47215934D01*
X90816293Y-47224178D01*
X90735804Y-47248595D01*
X90661624Y-47288245D01*
X90596605Y-47341605D01*
X90543245Y-47406624D01*
X90503595Y-47480804D01*
X90479178Y-47561293D01*
X90470934Y-47645000D01*
X71918076Y-47645000D01*
X71898659Y-47621341D01*
X71757505Y-47505499D01*
X71596464Y-47419420D01*
X71421724Y-47366413D01*
X71285538Y-47353000D01*
X71285527Y-47353000D01*
X71240000Y-47348516D01*
X71194473Y-47353000D01*
X70552747Y-47353000D01*
X70543395Y-47341605D01*
X70478376Y-47288245D01*
X70404196Y-47248595D01*
X70323707Y-47224178D01*
X70240000Y-47215934D01*
X68040000Y-47215934D01*
X67956293Y-47224178D01*
X67875804Y-47248595D01*
X67801624Y-47288245D01*
X67736605Y-47341605D01*
X67683245Y-47406624D01*
X67643595Y-47480804D01*
X67619178Y-47561293D01*
X67610934Y-47645000D01*
X67077000Y-47645000D01*
X67077000Y-45679066D01*
X67150000Y-45679066D01*
X67233707Y-45670822D01*
X67314196Y-45646405D01*
X67388376Y-45606755D01*
X67453395Y-45553395D01*
X67506755Y-45488376D01*
X67546405Y-45414196D01*
X67570822Y-45333707D01*
X67579066Y-45250000D01*
X67579066Y-45105000D01*
X70910934Y-45105000D01*
X70910934Y-46375000D01*
X70919178Y-46458707D01*
X70943595Y-46539196D01*
X70983245Y-46613376D01*
X71036605Y-46678395D01*
X71101624Y-46731755D01*
X71175804Y-46771405D01*
X71256293Y-46795822D01*
X71340000Y-46804066D01*
X73540000Y-46804066D01*
X73623707Y-46795822D01*
X73704196Y-46771405D01*
X73778376Y-46731755D01*
X73843395Y-46678395D01*
X73896755Y-46613376D01*
X73936405Y-46539196D01*
X73960822Y-46458707D01*
X73969066Y-46375000D01*
X73969066Y-45105000D01*
X73960822Y-45021293D01*
X73936405Y-44940804D01*
X73896755Y-44866624D01*
X73843395Y-44801605D01*
X73778376Y-44748245D01*
X73704196Y-44708595D01*
X73623707Y-44684178D01*
X73540000Y-44675934D01*
X71340000Y-44675934D01*
X71256293Y-44684178D01*
X71175804Y-44708595D01*
X71101624Y-44748245D01*
X71036605Y-44801605D01*
X70983245Y-44866624D01*
X70943595Y-44940804D01*
X70919178Y-45021293D01*
X70910934Y-45105000D01*
X67579066Y-45105000D01*
X67579066Y-44050000D01*
X67570822Y-43966293D01*
X67546405Y-43885804D01*
X67506755Y-43811624D01*
X67453395Y-43746605D01*
X67388376Y-43693245D01*
X67314196Y-43653595D01*
X67233707Y-43629178D01*
X67150000Y-43620934D01*
X65150000Y-43620934D01*
X65066293Y-43629178D01*
X64985804Y-43653595D01*
X64911624Y-43693245D01*
X64846605Y-43746605D01*
X64793245Y-43811624D01*
X64753595Y-43885804D01*
X64729178Y-43966293D01*
X64720934Y-44050000D01*
X64720934Y-45250000D01*
X64729178Y-45333707D01*
X64753595Y-45414196D01*
X64793245Y-45488376D01*
X64846605Y-45553395D01*
X64911624Y-45606755D01*
X64985804Y-45646405D01*
X65066293Y-45670822D01*
X65150000Y-45679066D01*
X65223000Y-45679066D01*
X65223000Y-46123217D01*
X65075945Y-46016463D01*
X64873000Y-45923000D01*
X63923000Y-45923000D01*
X63177000Y-45923000D01*
X62227000Y-45923000D01*
X62024055Y-46016463D01*
X61843243Y-46147723D01*
X61691513Y-46311735D01*
X61660443Y-46473539D01*
X61377000Y-46473539D01*
X61377000Y-43303774D01*
X62573000Y-43303774D01*
X62573000Y-43496226D01*
X62610546Y-43684980D01*
X62684194Y-43862783D01*
X62791115Y-44022801D01*
X62927199Y-44158885D01*
X63087217Y-44265806D01*
X63265020Y-44339454D01*
X63453774Y-44377000D01*
X63646226Y-44377000D01*
X63834980Y-44339454D01*
X64012783Y-44265806D01*
X64172801Y-44158885D01*
X64308885Y-44022801D01*
X64415806Y-43862783D01*
X64489454Y-43684980D01*
X64527000Y-43496226D01*
X64527000Y-43303774D01*
X64489454Y-43115020D01*
X64415806Y-42937217D01*
X64308885Y-42777199D01*
X64172801Y-42641115D01*
X64012783Y-42534194D01*
X63834980Y-42460546D01*
X63646226Y-42423000D01*
X63453774Y-42423000D01*
X63265020Y-42460546D01*
X63087217Y-42534194D01*
X62927199Y-42641115D01*
X62791115Y-42777199D01*
X62684194Y-42937217D01*
X62610546Y-43115020D01*
X62573000Y-43303774D01*
X61377000Y-43303774D01*
X61377000Y-38803774D01*
X62573000Y-38803774D01*
X62573000Y-38996226D01*
X62610546Y-39184980D01*
X62684194Y-39362783D01*
X62791115Y-39522801D01*
X62927199Y-39658885D01*
X63087217Y-39765806D01*
X63265020Y-39839454D01*
X63453774Y-39877000D01*
X63646226Y-39877000D01*
X63834980Y-39839454D01*
X64012783Y-39765806D01*
X64172801Y-39658885D01*
X64281686Y-39550000D01*
X64720934Y-39550000D01*
X64720934Y-40750000D01*
X64729178Y-40833707D01*
X64753595Y-40914196D01*
X64793245Y-40988376D01*
X64846605Y-41053395D01*
X64911624Y-41106755D01*
X64985804Y-41146405D01*
X64997655Y-41150000D01*
X64985804Y-41153595D01*
X64911624Y-41193245D01*
X64846605Y-41246605D01*
X64793245Y-41311624D01*
X64753595Y-41385804D01*
X64729178Y-41466293D01*
X64720934Y-41550000D01*
X64720934Y-42750000D01*
X64729178Y-42833707D01*
X64753595Y-42914196D01*
X64793245Y-42988376D01*
X64846605Y-43053395D01*
X64911624Y-43106755D01*
X64985804Y-43146405D01*
X65066293Y-43170822D01*
X65150000Y-43179066D01*
X67150000Y-43179066D01*
X67233707Y-43170822D01*
X67314196Y-43146405D01*
X67388376Y-43106755D01*
X67453395Y-43053395D01*
X67506755Y-42988376D01*
X67546405Y-42914196D01*
X67570822Y-42833707D01*
X67579066Y-42750000D01*
X67579066Y-42565000D01*
X67610934Y-42565000D01*
X67610934Y-43835000D01*
X67619178Y-43918707D01*
X67643595Y-43999196D01*
X67683245Y-44073376D01*
X67736605Y-44138395D01*
X67801624Y-44191755D01*
X67875804Y-44231405D01*
X67956293Y-44255822D01*
X68040000Y-44264066D01*
X70240000Y-44264066D01*
X70323707Y-44255822D01*
X70404196Y-44231405D01*
X70478376Y-44191755D01*
X70543395Y-44138395D01*
X70596755Y-44073376D01*
X70636405Y-43999196D01*
X70660822Y-43918707D01*
X70669066Y-43835000D01*
X70669066Y-42565000D01*
X70660822Y-42481293D01*
X70636405Y-42400804D01*
X70596755Y-42326624D01*
X70543395Y-42261605D01*
X70478376Y-42208245D01*
X70404196Y-42168595D01*
X70323707Y-42144178D01*
X70240000Y-42135934D01*
X68040000Y-42135934D01*
X67956293Y-42144178D01*
X67875804Y-42168595D01*
X67801624Y-42208245D01*
X67736605Y-42261605D01*
X67683245Y-42326624D01*
X67643595Y-42400804D01*
X67619178Y-42481293D01*
X67610934Y-42565000D01*
X67579066Y-42565000D01*
X67579066Y-41550000D01*
X67570822Y-41466293D01*
X67546405Y-41385804D01*
X67506755Y-41311624D01*
X67453395Y-41246605D01*
X67388376Y-41193245D01*
X67314196Y-41153595D01*
X67302345Y-41150000D01*
X67314196Y-41146405D01*
X67388376Y-41106755D01*
X67453395Y-41053395D01*
X67506755Y-40988376D01*
X67546405Y-40914196D01*
X67570822Y-40833707D01*
X67579066Y-40750000D01*
X67579066Y-40025000D01*
X70910934Y-40025000D01*
X70910934Y-41295000D01*
X70919178Y-41378707D01*
X70943595Y-41459196D01*
X70983245Y-41533376D01*
X71036605Y-41598395D01*
X71101624Y-41651755D01*
X71175804Y-41691405D01*
X71256293Y-41715822D01*
X71340000Y-41724066D01*
X73540000Y-41724066D01*
X73623707Y-41715822D01*
X73704196Y-41691405D01*
X73778376Y-41651755D01*
X73843395Y-41598395D01*
X73896755Y-41533376D01*
X73936405Y-41459196D01*
X73960822Y-41378707D01*
X73969066Y-41295000D01*
X73969066Y-40025000D01*
X73960822Y-39941293D01*
X73936405Y-39860804D01*
X73896755Y-39786624D01*
X73843395Y-39721605D01*
X73778376Y-39668245D01*
X73704196Y-39628595D01*
X73623707Y-39604178D01*
X73540000Y-39595934D01*
X71340000Y-39595934D01*
X71256293Y-39604178D01*
X71175804Y-39628595D01*
X71101624Y-39668245D01*
X71036605Y-39721605D01*
X70983245Y-39786624D01*
X70943595Y-39860804D01*
X70919178Y-39941293D01*
X70910934Y-40025000D01*
X67579066Y-40025000D01*
X67579066Y-39550000D01*
X67570822Y-39466293D01*
X67546405Y-39385804D01*
X67506755Y-39311624D01*
X67453395Y-39246605D01*
X67388376Y-39193245D01*
X67314196Y-39153595D01*
X67233707Y-39129178D01*
X67150000Y-39120934D01*
X65150000Y-39120934D01*
X65066293Y-39129178D01*
X64985804Y-39153595D01*
X64911624Y-39193245D01*
X64846605Y-39246605D01*
X64793245Y-39311624D01*
X64753595Y-39385804D01*
X64729178Y-39466293D01*
X64720934Y-39550000D01*
X64281686Y-39550000D01*
X64308885Y-39522801D01*
X64415806Y-39362783D01*
X64489454Y-39184980D01*
X64527000Y-38996226D01*
X64527000Y-38803774D01*
X64489454Y-38615020D01*
X64415806Y-38437217D01*
X64308885Y-38277199D01*
X64172801Y-38141115D01*
X64012783Y-38034194D01*
X63834980Y-37960546D01*
X63646226Y-37923000D01*
X63453774Y-37923000D01*
X63265020Y-37960546D01*
X63087217Y-38034194D01*
X62927199Y-38141115D01*
X62791115Y-38277199D01*
X62684194Y-38437217D01*
X62610546Y-38615020D01*
X62573000Y-38803774D01*
X61377000Y-38803774D01*
X61377000Y-37485000D01*
X67610934Y-37485000D01*
X67610934Y-38755000D01*
X67619178Y-38838707D01*
X67643595Y-38919196D01*
X67683245Y-38993376D01*
X67736605Y-39058395D01*
X67801624Y-39111755D01*
X67875804Y-39151405D01*
X67956293Y-39175822D01*
X68040000Y-39184066D01*
X70240000Y-39184066D01*
X70323707Y-39175822D01*
X70404196Y-39151405D01*
X70478376Y-39111755D01*
X70543395Y-39058395D01*
X70596755Y-38993376D01*
X70636405Y-38919196D01*
X70660822Y-38838707D01*
X70669066Y-38755000D01*
X70669066Y-37939366D01*
X70689420Y-38006464D01*
X70775499Y-38167505D01*
X70891341Y-38308659D01*
X71032495Y-38424501D01*
X71193536Y-38510580D01*
X71368276Y-38563587D01*
X71504462Y-38577000D01*
X73504117Y-38577000D01*
X73550000Y-38581519D01*
X73595883Y-38577000D01*
X75304473Y-38577000D01*
X75350000Y-38581484D01*
X75395527Y-38577000D01*
X75395538Y-38577000D01*
X75531724Y-38563587D01*
X75706464Y-38510580D01*
X75867505Y-38424501D01*
X76008659Y-38308659D01*
X76037688Y-38273287D01*
X77333976Y-36977000D01*
X77373000Y-36977000D01*
X77373000Y-37925247D01*
X77373001Y-37925257D01*
X77373000Y-39116755D01*
X77369726Y-39150000D01*
X77373000Y-39183245D01*
X77373000Y-39183251D01*
X77373001Y-39183261D01*
X77373000Y-40374757D01*
X77369726Y-40408002D01*
X77373000Y-40441247D01*
X77373000Y-40441253D01*
X77382796Y-40540716D01*
X77421508Y-40668331D01*
X77484372Y-40785942D01*
X77568973Y-40889028D01*
X77594800Y-40910224D01*
X79089772Y-42405196D01*
X79110971Y-42431027D01*
X79214057Y-42515628D01*
X79331668Y-42578492D01*
X79459283Y-42617204D01*
X79558746Y-42627000D01*
X79558755Y-42627000D01*
X79591997Y-42630274D01*
X79625239Y-42627000D01*
X80823001Y-42627000D01*
X80823000Y-45095537D01*
X80836413Y-45231723D01*
X80889420Y-45406463D01*
X80975499Y-45567504D01*
X81091341Y-45708659D01*
X81232495Y-45824501D01*
X81393536Y-45910580D01*
X81568276Y-45963587D01*
X81750000Y-45981485D01*
X81931723Y-45963587D01*
X82106463Y-45910580D01*
X82267504Y-45824501D01*
X82408659Y-45708659D01*
X82524501Y-45567505D01*
X82610580Y-45406464D01*
X82663587Y-45231724D01*
X82677000Y-45095538D01*
X82677000Y-42633975D01*
X82737688Y-42573287D01*
X82824501Y-42467505D01*
X82910580Y-42306463D01*
X82963586Y-42131724D01*
X82981484Y-41950001D01*
X82963586Y-41768277D01*
X82910580Y-41593537D01*
X82824501Y-41432495D01*
X82708659Y-41291341D01*
X82567505Y-41175499D01*
X82406463Y-41089420D01*
X82231723Y-41036414D01*
X82049999Y-41018516D01*
X81868276Y-41036414D01*
X81693537Y-41089420D01*
X81532495Y-41175499D01*
X81426713Y-41262312D01*
X81416025Y-41273000D01*
X79872420Y-41273000D01*
X78727000Y-40127580D01*
X78727000Y-39727000D01*
X82416755Y-39727000D01*
X82450000Y-39730274D01*
X82483245Y-39727000D01*
X82483252Y-39727000D01*
X82582715Y-39717204D01*
X82710330Y-39678492D01*
X82827941Y-39615628D01*
X82931027Y-39531027D01*
X82952226Y-39505196D01*
X83092582Y-39364840D01*
X83191227Y-39345218D01*
X83341731Y-39282877D01*
X83477181Y-39192372D01*
X83592372Y-39077181D01*
X83682877Y-38941731D01*
X83745218Y-38791227D01*
X83777000Y-38631452D01*
X83777000Y-38468548D01*
X83745218Y-38308773D01*
X83682877Y-38158269D01*
X83592372Y-38022819D01*
X83477181Y-37907628D01*
X83341731Y-37817123D01*
X83191227Y-37754782D01*
X83031452Y-37723000D01*
X82868548Y-37723000D01*
X82708773Y-37754782D01*
X82558269Y-37817123D01*
X82422819Y-37907628D01*
X82307628Y-38022819D01*
X82217123Y-38158269D01*
X82154782Y-38308773D01*
X82142006Y-38373000D01*
X78727000Y-38373000D01*
X78727000Y-37077000D01*
X80477346Y-37077000D01*
X80519995Y-37112001D01*
X80681036Y-37198080D01*
X80855776Y-37251087D01*
X81037500Y-37268985D01*
X81219223Y-37251087D01*
X81393963Y-37198080D01*
X81424785Y-37181605D01*
X81555005Y-37112001D01*
X81696159Y-36996159D01*
X81812001Y-36855005D01*
X81852898Y-36778492D01*
X81898080Y-36693964D01*
X81951087Y-36519224D01*
X81964500Y-36383038D01*
X81964500Y-36383026D01*
X81968984Y-36337499D01*
X81964500Y-36291972D01*
X81964500Y-36091963D01*
X81951087Y-35955777D01*
X81898080Y-35781036D01*
X81812001Y-35619995D01*
X81696159Y-35478841D01*
X81555005Y-35362999D01*
X81393964Y-35276920D01*
X81219224Y-35223913D01*
X81037500Y-35206015D01*
X80880287Y-35221499D01*
X80850000Y-35218516D01*
X80804473Y-35223000D01*
X78469287Y-35223000D01*
X78406464Y-35189420D01*
X78231724Y-35136413D01*
X78095538Y-35123000D01*
X76995527Y-35123000D01*
X76950000Y-35118516D01*
X76904473Y-35123000D01*
X76904462Y-35123000D01*
X76768276Y-35136413D01*
X76593536Y-35189420D01*
X76432494Y-35275498D01*
X76326712Y-35362312D01*
X76326708Y-35362316D01*
X76291341Y-35391341D01*
X76262316Y-35426708D01*
X74966025Y-36723000D01*
X73595537Y-36723000D01*
X73550000Y-36718515D01*
X73504462Y-36723000D01*
X71504462Y-36723000D01*
X71368276Y-36736413D01*
X71193536Y-36789420D01*
X71032495Y-36875499D01*
X70891341Y-36991341D01*
X70775499Y-37132495D01*
X70689420Y-37293536D01*
X70658777Y-37394552D01*
X70636405Y-37320804D01*
X70596755Y-37246624D01*
X70543395Y-37181605D01*
X70478376Y-37128245D01*
X70404196Y-37088595D01*
X70323707Y-37064178D01*
X70240000Y-37055934D01*
X68040000Y-37055934D01*
X67956293Y-37064178D01*
X67875804Y-37088595D01*
X67801624Y-37128245D01*
X67736605Y-37181605D01*
X67683245Y-37246624D01*
X67643595Y-37320804D01*
X67619178Y-37401293D01*
X67610934Y-37485000D01*
X61377000Y-37485000D01*
X61377000Y-35826461D01*
X61660443Y-35826461D01*
X61691513Y-35988265D01*
X61843243Y-36152277D01*
X62024055Y-36283537D01*
X62227000Y-36377000D01*
X63177000Y-36377000D01*
X63177000Y-35673000D01*
X63923000Y-35673000D01*
X63923000Y-36377000D01*
X64873000Y-36377000D01*
X65075945Y-36283537D01*
X65256757Y-36152277D01*
X65408487Y-35988265D01*
X65439557Y-35826461D01*
X65395687Y-35673000D01*
X63923000Y-35673000D01*
X63177000Y-35673000D01*
X61704313Y-35673000D01*
X61660443Y-35826461D01*
X61377000Y-35826461D01*
X61377000Y-34773539D01*
X61660443Y-34773539D01*
X61704313Y-34927000D01*
X63177000Y-34927000D01*
X63177000Y-34223000D01*
X63923000Y-34223000D01*
X63923000Y-34927000D01*
X65395687Y-34927000D01*
X65439557Y-34773539D01*
X65408487Y-34611735D01*
X65256757Y-34447723D01*
X65075945Y-34316463D01*
X64873000Y-34223000D01*
X63923000Y-34223000D01*
X63177000Y-34223000D01*
X62227000Y-34223000D01*
X62024055Y-34316463D01*
X61843243Y-34447723D01*
X61691513Y-34611735D01*
X61660443Y-34773539D01*
X61377000Y-34773539D01*
X61377000Y-29277000D01*
X94857354Y-29277000D01*
X94698421Y-29435934D01*
G37*
X94698421Y-29435934D02*
X94200000Y-29435934D01*
X94116293Y-29444178D01*
X94035804Y-29468595D01*
X93961624Y-29508245D01*
X93896605Y-29561605D01*
X93866736Y-29598000D01*
X83277098Y-29598000D01*
X83249990Y-29595330D01*
X83222881Y-29598000D01*
X83141779Y-29605988D01*
X83037727Y-29637552D01*
X82941832Y-29688809D01*
X82857779Y-29757789D01*
X82840498Y-29778846D01*
X82496356Y-30122990D01*
X82368548Y-30122990D01*
X82208773Y-30154772D01*
X82058269Y-30217113D01*
X81922819Y-30307618D01*
X81807628Y-30422809D01*
X81717123Y-30558259D01*
X81657016Y-30703370D01*
X81532502Y-30578856D01*
X81515213Y-30557789D01*
X81431160Y-30488809D01*
X81335265Y-30437552D01*
X81231213Y-30405988D01*
X81150111Y-30398000D01*
X81150108Y-30398000D01*
X81123002Y-30395330D01*
X81095896Y-30398000D01*
X79767553Y-30398000D01*
X79677181Y-30307628D01*
X79541731Y-30217123D01*
X79391227Y-30154782D01*
X79231452Y-30123000D01*
X79068548Y-30123000D01*
X78908773Y-30154782D01*
X78758269Y-30217123D01*
X78622819Y-30307628D01*
X78507628Y-30422819D01*
X78417123Y-30558269D01*
X78354782Y-30708773D01*
X78323000Y-30868548D01*
X78323000Y-31031452D01*
X78354782Y-31191227D01*
X78388654Y-31273000D01*
X73944352Y-31273000D01*
X73960822Y-31218707D01*
X73969066Y-31135000D01*
X73969066Y-29865000D01*
X73960822Y-29781293D01*
X73936405Y-29700804D01*
X73896755Y-29626624D01*
X73843395Y-29561605D01*
X73778376Y-29508245D01*
X73704196Y-29468595D01*
X73623707Y-29444178D01*
X73540000Y-29435934D01*
X71340000Y-29435934D01*
X71256293Y-29444178D01*
X71175804Y-29468595D01*
X71101624Y-29508245D01*
X71036605Y-29561605D01*
X70983245Y-29626624D01*
X70943595Y-29700804D01*
X70919178Y-29781293D01*
X70910934Y-29865000D01*
X70910934Y-31135000D01*
X70919178Y-31218707D01*
X70943595Y-31299196D01*
X70983245Y-31373376D01*
X71036605Y-31438395D01*
X71101624Y-31491755D01*
X71175804Y-31531405D01*
X71256293Y-31555822D01*
X71340000Y-31564066D01*
X72278512Y-31564066D01*
X70669066Y-33173512D01*
X70669066Y-32405000D01*
X70660822Y-32321293D01*
X70636405Y-32240804D01*
X70596755Y-32166624D01*
X70543395Y-32101605D01*
X70478376Y-32048245D01*
X70404196Y-32008595D01*
X70323707Y-31984178D01*
X70240000Y-31975934D01*
X68040000Y-31975934D01*
X67956293Y-31984178D01*
X67875804Y-32008595D01*
X67801624Y-32048245D01*
X67736605Y-32101605D01*
X67683245Y-32166624D01*
X67643595Y-32240804D01*
X67619178Y-32321293D01*
X67610934Y-32405000D01*
X67610934Y-33675000D01*
X67619178Y-33758707D01*
X67643595Y-33839196D01*
X67683245Y-33913376D01*
X67736605Y-33978395D01*
X67801624Y-34031755D01*
X67875804Y-34071405D01*
X67956293Y-34095822D01*
X68040000Y-34104066D01*
X69738512Y-34104066D01*
X69007418Y-34835160D01*
X68908773Y-34854782D01*
X68758269Y-34917123D01*
X68622819Y-35007628D01*
X68507628Y-35122819D01*
X68417123Y-35258269D01*
X68354782Y-35408773D01*
X68323000Y-35568548D01*
X68323000Y-35731452D01*
X68354782Y-35891227D01*
X68417123Y-36041731D01*
X68507628Y-36177181D01*
X68622819Y-36292372D01*
X68758269Y-36382877D01*
X68908773Y-36445218D01*
X69068548Y-36477000D01*
X69231452Y-36477000D01*
X69391227Y-36445218D01*
X69541731Y-36382877D01*
X69677181Y-36292372D01*
X69792372Y-36177181D01*
X69882877Y-36041731D01*
X69945218Y-35891227D01*
X69964840Y-35792582D01*
X70929215Y-34828207D01*
X70919178Y-34861293D01*
X70910934Y-34945000D01*
X70910934Y-36215000D01*
X70919178Y-36298707D01*
X70943595Y-36379196D01*
X70983245Y-36453376D01*
X71036605Y-36518395D01*
X71101624Y-36571755D01*
X71175804Y-36611405D01*
X71256293Y-36635822D01*
X71340000Y-36644066D01*
X73540000Y-36644066D01*
X73623707Y-36635822D01*
X73704196Y-36611405D01*
X73778376Y-36571755D01*
X73843395Y-36518395D01*
X73896755Y-36453376D01*
X73936405Y-36379196D01*
X73960822Y-36298707D01*
X73969066Y-36215000D01*
X73969066Y-34945000D01*
X73960822Y-34861293D01*
X73936405Y-34780804D01*
X73896755Y-34706624D01*
X73843395Y-34641605D01*
X73778376Y-34588245D01*
X73704196Y-34548595D01*
X73623707Y-34524178D01*
X73540000Y-34515934D01*
X71340000Y-34515934D01*
X71256293Y-34524178D01*
X71223207Y-34534215D01*
X73130422Y-32627000D01*
X80574643Y-32627000D01*
X80658269Y-32682877D01*
X80808773Y-32745218D01*
X80968548Y-32777000D01*
X81131452Y-32777000D01*
X81291227Y-32745218D01*
X81441731Y-32682877D01*
X81577181Y-32592372D01*
X81692372Y-32477181D01*
X81782877Y-32341731D01*
X81830031Y-32227892D01*
X81847992Y-32229661D01*
X81875098Y-32226991D01*
X82797903Y-32226991D01*
X82825009Y-32229661D01*
X82852115Y-32226991D01*
X82852118Y-32226991D01*
X82933220Y-32219003D01*
X83037272Y-32187439D01*
X83133167Y-32136182D01*
X83217220Y-32067202D01*
X83234509Y-32046135D01*
X84078646Y-31202000D01*
X91321355Y-31202000D01*
X91448000Y-31328645D01*
X91448000Y-31975934D01*
X90900000Y-31975934D01*
X90816293Y-31984178D01*
X90735804Y-32008595D01*
X90661624Y-32048245D01*
X90596605Y-32101605D01*
X90543245Y-32166624D01*
X90503595Y-32240804D01*
X90479178Y-32321293D01*
X90470934Y-32405000D01*
X90470934Y-33675000D01*
X90479178Y-33758707D01*
X90503595Y-33839196D01*
X90543245Y-33913376D01*
X90596605Y-33978395D01*
X90661624Y-34031755D01*
X90735804Y-34071405D01*
X90816293Y-34095822D01*
X90900000Y-34104066D01*
X93100000Y-34104066D01*
X93183707Y-34095822D01*
X93264196Y-34071405D01*
X93338376Y-34031755D01*
X93403395Y-33978395D01*
X93456755Y-33913376D01*
X93496405Y-33839196D01*
X93520822Y-33758707D01*
X93529066Y-33675000D01*
X93529066Y-32405000D01*
X93520822Y-32321293D01*
X93496405Y-32240804D01*
X93456755Y-32166624D01*
X93403395Y-32101605D01*
X93338376Y-32048245D01*
X93264196Y-32008595D01*
X93183707Y-31984178D01*
X93100000Y-31975934D01*
X92552000Y-31975934D01*
X92552000Y-31127105D01*
X92554670Y-31099999D01*
X92552000Y-31072891D01*
X92544012Y-30991789D01*
X92512448Y-30887737D01*
X92461191Y-30791842D01*
X92392211Y-30707789D01*
X92385157Y-30702000D01*
X93770934Y-30702000D01*
X93770934Y-31135000D01*
X93779178Y-31218707D01*
X93803595Y-31299196D01*
X93843245Y-31373376D01*
X93896605Y-31438395D01*
X93961624Y-31491755D01*
X94035804Y-31531405D01*
X94116293Y-31555822D01*
X94200000Y-31564066D01*
X96400000Y-31564066D01*
X96483707Y-31555822D01*
X96564196Y-31531405D01*
X96638376Y-31491755D01*
X96703395Y-31438395D01*
X96756755Y-31373376D01*
X96796405Y-31299196D01*
X96820822Y-31218707D01*
X96829066Y-31135000D01*
X96829066Y-29865000D01*
X96820822Y-29781293D01*
X96796405Y-29700804D01*
X96756755Y-29626624D01*
X96703395Y-29561605D01*
X96638376Y-29508245D01*
X96564196Y-29468595D01*
X96483707Y-29444178D01*
X96400000Y-29435934D01*
X95822517Y-29435934D01*
X95812447Y-29402738D01*
X95761191Y-29306843D01*
X95736699Y-29277000D01*
X103323001Y-29277000D01*
X103323001Y-40070934D01*
X99450000Y-40070934D01*
X99366293Y-40079178D01*
X99285804Y-40103595D01*
X99211624Y-40143245D01*
X99146605Y-40196605D01*
X99093245Y-40261624D01*
X99053595Y-40335804D01*
X99029178Y-40416293D01*
X99020934Y-40500000D01*
X99020934Y-40684987D01*
X98891341Y-40791341D01*
X98775499Y-40932495D01*
X98689420Y-41093536D01*
X98636413Y-41268276D01*
X98618515Y-41450000D01*
X98636413Y-41631724D01*
X98689420Y-41806464D01*
X98775499Y-41967505D01*
X98891341Y-42108659D01*
X99032495Y-42224501D01*
X99120434Y-42271506D01*
X99146605Y-42303395D01*
X99211624Y-42356755D01*
X99285804Y-42396405D01*
X99366293Y-42420822D01*
X99450000Y-42429066D01*
X103323000Y-42429066D01*
X103323000Y-56423000D01*
X100824119Y-56423000D01*
X100800027Y-56425373D01*
X100781292Y-56425242D01*
X100773969Y-56425960D01*
X100191680Y-56487161D01*
X100144940Y-56496756D01*
X100097972Y-56505715D01*
X100090928Y-56507842D01*
X99531614Y-56680979D01*
X99487610Y-56699477D01*
X99443296Y-56717381D01*
X99436799Y-56720836D01*
X98921768Y-56999312D01*
X98882217Y-57025989D01*
X98842200Y-57052176D01*
X98836498Y-57056827D01*
X98385365Y-57430037D01*
X98351715Y-57463923D01*
X98317583Y-57497347D01*
X98312893Y-57503017D01*
X97942840Y-57956745D01*
X97916420Y-57996511D01*
X97889422Y-58035941D01*
X97885923Y-58042414D01*
X97611048Y-58559378D01*
X97592850Y-58603532D01*
X97574030Y-58647441D01*
X97571854Y-58654470D01*
X97402628Y-59214978D01*
X97393360Y-59261783D01*
X97383419Y-59308553D01*
X97382650Y-59315871D01*
X97325515Y-59898573D01*
X97325515Y-59898594D01*
X97323001Y-59924119D01*
X97323000Y-62423000D01*
X89643866Y-62423000D01*
X89702715Y-62417204D01*
X89830330Y-62378492D01*
X89947941Y-62315628D01*
X90051027Y-62231027D01*
X90072227Y-62205195D01*
X90425191Y-61852231D01*
X90451027Y-61831027D01*
X90535628Y-61727941D01*
X90598492Y-61610330D01*
X90637204Y-61482715D01*
X90647000Y-61383252D01*
X90647000Y-61383243D01*
X90650274Y-61350001D01*
X90647000Y-61316759D01*
X90647000Y-61214974D01*
X90705804Y-61246405D01*
X90786293Y-61270822D01*
X90870000Y-61279066D01*
X91221644Y-61279066D01*
X91272774Y-61330196D01*
X91293973Y-61356027D01*
X91397059Y-61440628D01*
X91514670Y-61503492D01*
X91642285Y-61542204D01*
X91741748Y-61552000D01*
X91741757Y-61552000D01*
X91774999Y-61555274D01*
X91808241Y-61552000D01*
X92983116Y-61552000D01*
X93017997Y-61594503D01*
X93119953Y-61678176D01*
X93236274Y-61740351D01*
X93362490Y-61778638D01*
X93493750Y-61791566D01*
X94406250Y-61791566D01*
X94537510Y-61778638D01*
X94663726Y-61740351D01*
X94780047Y-61678176D01*
X94882003Y-61594503D01*
X94965676Y-61492547D01*
X95027851Y-61376226D01*
X95066138Y-61250010D01*
X95079066Y-61118750D01*
X95079066Y-60631250D01*
X95066138Y-60499990D01*
X95027851Y-60373774D01*
X94965676Y-60257453D01*
X94882003Y-60155497D01*
X94780047Y-60071824D01*
X94663726Y-60009649D01*
X94537510Y-59971362D01*
X94406250Y-59958434D01*
X93493750Y-59958434D01*
X93362490Y-59971362D01*
X93236274Y-60009649D01*
X93119953Y-60071824D01*
X93017997Y-60155497D01*
X92983116Y-60198000D01*
X92055422Y-60198000D01*
X92039066Y-60181644D01*
X92039066Y-58450000D01*
X92030822Y-58366293D01*
X92025437Y-58348543D01*
X92168548Y-58377010D01*
X92331452Y-58377010D01*
X92363260Y-58370683D01*
X92820934Y-58828357D01*
X92820934Y-59243750D01*
X92833862Y-59375010D01*
X92872149Y-59501226D01*
X92934324Y-59617547D01*
X93017997Y-59719503D01*
X93119953Y-59803176D01*
X93236274Y-59865351D01*
X93362490Y-59903638D01*
X93493750Y-59916566D01*
X94406250Y-59916566D01*
X94537510Y-59903638D01*
X94663726Y-59865351D01*
X94780047Y-59803176D01*
X94882003Y-59719503D01*
X94965676Y-59617547D01*
X95027851Y-59501226D01*
X95066138Y-59375010D01*
X95079066Y-59243750D01*
X95079066Y-58756250D01*
X95066138Y-58624990D01*
X95027851Y-58498774D01*
X94965676Y-58382453D01*
X94882003Y-58280497D01*
X94780047Y-58196824D01*
X94663726Y-58134649D01*
X94537510Y-58096362D01*
X94406250Y-58083434D01*
X93990857Y-58083434D01*
X93002236Y-57094814D01*
X92981037Y-57068983D01*
X92877951Y-56984382D01*
X92826337Y-56956794D01*
X92777181Y-56907638D01*
X92641731Y-56817133D01*
X92491227Y-56754792D01*
X92331452Y-56723010D01*
X92168548Y-56723010D01*
X92039066Y-56748766D01*
X92039066Y-55288566D01*
X94710931Y-55288566D01*
X94710931Y-55611434D01*
X94773919Y-55928099D01*
X94897476Y-56226390D01*
X95076852Y-56494846D01*
X95305154Y-56723148D01*
X95573610Y-56902524D01*
X95871901Y-57026081D01*
X96188566Y-57089069D01*
X96511434Y-57089069D01*
X96828099Y-57026081D01*
X97126390Y-56902524D01*
X97394846Y-56723148D01*
X97623148Y-56494846D01*
X97802524Y-56226390D01*
X97926081Y-55928099D01*
X97989069Y-55611434D01*
X97989069Y-55288566D01*
X97926081Y-54971901D01*
X97802524Y-54673610D01*
X97623148Y-54405154D01*
X97394846Y-54176852D01*
X97126390Y-53997476D01*
X96828099Y-53873919D01*
X96511434Y-53810931D01*
X96188566Y-53810931D01*
X95871901Y-53873919D01*
X95573610Y-53997476D01*
X95305154Y-54176852D01*
X95076852Y-54405154D01*
X94897476Y-54673610D01*
X94773919Y-54971901D01*
X94710931Y-55288566D01*
X92039066Y-55288566D01*
X92039066Y-54550000D01*
X92030822Y-54466293D01*
X92006405Y-54385804D01*
X91966755Y-54311624D01*
X91913395Y-54246605D01*
X91848376Y-54193245D01*
X91774196Y-54153595D01*
X91693707Y-54129178D01*
X91610000Y-54120934D01*
X90870000Y-54120934D01*
X90786293Y-54129178D01*
X90705804Y-54153595D01*
X90631624Y-54193245D01*
X90605000Y-54215095D01*
X90578376Y-54193245D01*
X90504196Y-54153595D01*
X90423707Y-54129178D01*
X90340000Y-54120934D01*
X89600000Y-54120934D01*
X89516293Y-54129178D01*
X89435804Y-54153595D01*
X89361624Y-54193245D01*
X89335000Y-54215095D01*
X89308376Y-54193245D01*
X89234196Y-54153595D01*
X89153707Y-54129178D01*
X89070000Y-54120934D01*
X88330000Y-54120934D01*
X88246293Y-54129178D01*
X88165804Y-54153595D01*
X88091624Y-54193245D01*
X88065000Y-54215095D01*
X88038376Y-54193245D01*
X87964196Y-54153595D01*
X87883707Y-54129178D01*
X87800000Y-54120934D01*
X87060000Y-54120934D01*
X86976293Y-54129178D01*
X86895804Y-54153595D01*
X86837000Y-54185026D01*
X86837000Y-54110391D01*
X86882877Y-54041731D01*
X86945218Y-53891227D01*
X86977000Y-53731452D01*
X86977000Y-53568548D01*
X86945218Y-53408773D01*
X86882877Y-53258269D01*
X86792372Y-53122819D01*
X86677181Y-53007628D01*
X86541731Y-52917123D01*
X86391227Y-52854782D01*
X86231452Y-52823000D01*
X86068548Y-52823000D01*
X85908773Y-52854782D01*
X85758269Y-52917123D01*
X85622819Y-53007628D01*
X85507628Y-53122819D01*
X85417123Y-53258269D01*
X85354782Y-53408773D01*
X85323000Y-53568548D01*
X85323000Y-53731452D01*
X85354782Y-53891227D01*
X85417123Y-54041731D01*
X85483001Y-54140324D01*
X85483001Y-54250997D01*
X85433245Y-54311624D01*
X85393595Y-54385804D01*
X85369178Y-54466293D01*
X85360934Y-54550000D01*
X85360934Y-56875998D01*
X85332877Y-56808263D01*
X85242372Y-56672813D01*
X85127181Y-56557622D01*
X84991731Y-56467117D01*
X84841227Y-56404776D01*
X84681452Y-56372994D01*
X84518548Y-56372994D01*
X84358773Y-56404776D01*
X84208269Y-56467117D01*
X84072819Y-56557622D01*
X83957628Y-56672813D01*
X83867123Y-56808263D01*
X83804782Y-56958767D01*
X83773000Y-57118542D01*
X83773000Y-57238654D01*
X83691227Y-57204782D01*
X83531452Y-57173000D01*
X83368548Y-57173000D01*
X83208773Y-57204782D01*
X83058269Y-57267123D01*
X82922819Y-57357628D01*
X82807628Y-57472819D01*
X82717123Y-57608269D01*
X82654782Y-57758773D01*
X82623000Y-57918548D01*
X82623000Y-58081452D01*
X82654782Y-58241227D01*
X82717123Y-58391731D01*
X82807628Y-58527181D01*
X82922819Y-58642372D01*
X83058269Y-58732877D01*
X83208773Y-58795218D01*
X83368548Y-58827000D01*
X83531452Y-58827000D01*
X83691227Y-58795218D01*
X83841731Y-58732877D01*
X83977181Y-58642372D01*
X84067553Y-58552000D01*
X86630934Y-58552000D01*
X86630934Y-60850000D01*
X86639178Y-60933707D01*
X86663595Y-61014196D01*
X86695026Y-61073000D01*
X85230422Y-61073000D01*
X84064840Y-59907418D01*
X84045218Y-59808773D01*
X83982877Y-59658269D01*
X83892372Y-59522819D01*
X83777181Y-59407628D01*
X83641731Y-59317123D01*
X83491227Y-59254782D01*
X83331452Y-59223000D01*
X83168548Y-59223000D01*
X83008773Y-59254782D01*
X82858269Y-59317123D01*
X82722819Y-59407628D01*
X82607628Y-59522819D01*
X82517123Y-59658269D01*
X82454782Y-59808773D01*
X82423000Y-59968548D01*
X82423000Y-60131452D01*
X82454782Y-60291227D01*
X82517123Y-60441731D01*
X82607628Y-60577181D01*
X82722819Y-60692372D01*
X82858269Y-60782877D01*
X83008773Y-60845218D01*
X83107418Y-60864840D01*
X84447774Y-62205196D01*
X84468973Y-62231027D01*
X84572059Y-62315628D01*
X84689670Y-62378492D01*
X84817285Y-62417204D01*
X84876134Y-62423000D01*
X67377000Y-62423000D01*
X67377000Y-59924119D01*
X67374627Y-59900027D01*
X67374758Y-59881292D01*
X67374040Y-59873969D01*
X67312839Y-59291680D01*
X67303244Y-59244940D01*
X67294285Y-59197972D01*
X67292158Y-59190928D01*
X67119021Y-58631614D01*
X67100523Y-58587610D01*
X67082619Y-58543296D01*
X67079164Y-58536799D01*
X66800688Y-58021768D01*
X66774011Y-57982217D01*
X66747824Y-57942200D01*
X66743173Y-57936498D01*
X66369963Y-57485365D01*
X66336077Y-57451715D01*
X66302653Y-57417583D01*
X66296983Y-57412893D01*
X65843255Y-57042840D01*
X65803489Y-57016420D01*
X65764059Y-56989422D01*
X65757586Y-56985923D01*
X65240622Y-56711048D01*
X65196468Y-56692850D01*
X65152559Y-56674030D01*
X65145530Y-56671854D01*
X64585022Y-56502628D01*
X64538217Y-56493360D01*
X64491447Y-56483419D01*
X64484129Y-56482650D01*
X63901427Y-56425515D01*
X63901417Y-56425515D01*
X63875881Y-56423000D01*
X61377000Y-56423000D01*
X61377000Y-55288566D01*
X66710931Y-55288566D01*
X66710931Y-55611434D01*
X66773919Y-55928099D01*
X66897476Y-56226390D01*
X67076852Y-56494846D01*
X67305154Y-56723148D01*
X67573610Y-56902524D01*
X67871901Y-57026081D01*
X68188566Y-57089069D01*
X68511434Y-57089069D01*
X68828099Y-57026081D01*
X69126390Y-56902524D01*
X69394846Y-56723148D01*
X69623148Y-56494846D01*
X69802524Y-56226390D01*
X69926081Y-55928099D01*
X69989069Y-55611434D01*
X69989069Y-55288566D01*
X69926081Y-54971901D01*
X69802524Y-54673610D01*
X69623148Y-54405154D01*
X69394846Y-54176852D01*
X69126390Y-53997476D01*
X68828099Y-53873919D01*
X68511434Y-53810931D01*
X68188566Y-53810931D01*
X67871901Y-53873919D01*
X67573610Y-53997476D01*
X67305154Y-54176852D01*
X67076852Y-54405154D01*
X66897476Y-54673610D01*
X66773919Y-54971901D01*
X66710931Y-55288566D01*
X61377000Y-55288566D01*
X61377000Y-47526461D01*
X61660443Y-47526461D01*
X61691513Y-47688265D01*
X61843243Y-47852277D01*
X62024055Y-47983537D01*
X62227000Y-48077000D01*
X63177000Y-48077000D01*
X63177000Y-47373000D01*
X61704313Y-47373000D01*
X61660443Y-47526461D01*
X61377000Y-47526461D01*
X61377000Y-46473539D01*
X61660443Y-46473539D01*
X61704313Y-46627000D01*
X63177000Y-46627000D01*
X63177000Y-45923000D01*
X63923000Y-45923000D01*
X63923000Y-46627000D01*
X63943000Y-46627000D01*
X63943000Y-47373000D01*
X63923000Y-47373000D01*
X63923000Y-48077000D01*
X64873000Y-48077000D01*
X65075945Y-47983537D01*
X65223001Y-47876782D01*
X65223001Y-48239454D01*
X65218515Y-48285002D01*
X65236413Y-48466726D01*
X65289420Y-48641466D01*
X65375499Y-48802507D01*
X65491341Y-48943661D01*
X65632495Y-49059503D01*
X65793536Y-49145582D01*
X65968276Y-49198589D01*
X66104462Y-49212002D01*
X66104463Y-49212002D01*
X66150000Y-49216487D01*
X66182504Y-49213286D01*
X66214998Y-49216486D01*
X66260525Y-49212002D01*
X66260536Y-49212002D01*
X66396722Y-49198589D01*
X66571462Y-49145582D01*
X66732503Y-49059503D01*
X66873657Y-48943661D01*
X66902686Y-48908289D01*
X66937688Y-48873287D01*
X67024501Y-48767505D01*
X67110579Y-48606464D01*
X67163585Y-48431723D01*
X67181484Y-48250001D01*
X67163585Y-48068277D01*
X67110579Y-47893537D01*
X67077000Y-47830715D01*
X67077000Y-47645000D01*
X67610934Y-47645000D01*
X67610934Y-48915000D01*
X67619178Y-48998707D01*
X67643595Y-49079196D01*
X67683245Y-49153376D01*
X67736605Y-49218395D01*
X67801624Y-49271755D01*
X67875804Y-49311405D01*
X67956293Y-49335822D01*
X68040000Y-49344066D01*
X70240000Y-49344066D01*
X70323707Y-49335822D01*
X70404196Y-49311405D01*
X70478376Y-49271755D01*
X70543395Y-49218395D01*
X70552747Y-49207000D01*
X70856025Y-49207000D01*
X74248000Y-52598976D01*
X74248001Y-53854453D01*
X74248000Y-53854463D01*
X74248000Y-54645538D01*
X74258434Y-54751477D01*
X74258434Y-55056250D01*
X74271362Y-55187510D01*
X74309649Y-55313726D01*
X74371824Y-55430047D01*
X74455497Y-55532003D01*
X74557453Y-55615676D01*
X74673774Y-55677851D01*
X74799990Y-55716138D01*
X74931250Y-55729066D01*
X75418750Y-55729066D01*
X75550010Y-55716138D01*
X75676226Y-55677851D01*
X75792547Y-55615676D01*
X75894503Y-55532003D01*
X75978176Y-55430047D01*
X76040351Y-55313726D01*
X76078638Y-55187510D01*
X76091566Y-55056250D01*
X76091566Y-54751477D01*
X76102000Y-54645538D01*
X76102000Y-54600000D01*
X76118515Y-54600000D01*
X76133434Y-54751477D01*
X76133434Y-55056250D01*
X76146362Y-55187510D01*
X76184649Y-55313726D01*
X76246824Y-55430047D01*
X76330497Y-55532003D01*
X76432453Y-55615676D01*
X76548774Y-55677851D01*
X76674990Y-55716138D01*
X76806250Y-55729066D01*
X77293750Y-55729066D01*
X77425010Y-55716138D01*
X77551226Y-55677851D01*
X77667547Y-55615676D01*
X77769503Y-55532003D01*
X77773609Y-55527000D01*
X78104473Y-55527000D01*
X78150000Y-55531484D01*
X78195527Y-55527000D01*
X78195538Y-55527000D01*
X78331724Y-55513587D01*
X78506464Y-55460580D01*
X78667505Y-55374501D01*
X78808659Y-55258659D01*
X78837688Y-55223287D01*
X79387687Y-54673288D01*
X79474501Y-54567506D01*
X79560579Y-54406465D01*
X79613585Y-54231724D01*
X79631484Y-54050001D01*
X79613585Y-53868277D01*
X79560579Y-53693537D01*
X79474501Y-53532496D01*
X79358659Y-53391341D01*
X79217504Y-53275499D01*
X79056463Y-53189421D01*
X78881723Y-53136415D01*
X78699999Y-53118516D01*
X78518276Y-53136415D01*
X78343535Y-53189421D01*
X78182494Y-53275499D01*
X78076712Y-53362313D01*
X77770190Y-53668835D01*
X77769503Y-53667997D01*
X77667547Y-53584324D01*
X77551226Y-53522149D01*
X77425010Y-53483862D01*
X77293750Y-53470934D01*
X76806250Y-53470934D01*
X76674990Y-53483862D01*
X76548774Y-53522149D01*
X76432453Y-53584324D01*
X76330497Y-53667997D01*
X76246824Y-53769953D01*
X76184649Y-53886274D01*
X76146362Y-54012490D01*
X76133434Y-54143750D01*
X76133434Y-54448523D01*
X76118515Y-54600000D01*
X76102000Y-54600000D01*
X76102000Y-52260524D01*
X76106484Y-52214999D01*
X76102000Y-52169474D01*
X76102000Y-52169462D01*
X76088587Y-52033276D01*
X76035580Y-51858536D01*
X75949502Y-51697496D01*
X75949501Y-51697494D01*
X75862687Y-51591711D01*
X75862684Y-51591708D01*
X75833659Y-51556341D01*
X75798293Y-51527318D01*
X71927688Y-47656713D01*
X71918076Y-47645000D01*
X90470934Y-47645000D01*
X90470934Y-48915000D01*
X90479178Y-48998707D01*
X90503595Y-49079196D01*
X90543245Y-49153376D01*
X90596605Y-49218395D01*
X90661624Y-49271755D01*
X90735804Y-49311405D01*
X90816293Y-49335822D01*
X90900000Y-49344066D01*
X91753091Y-49344066D01*
X92123001Y-49713976D01*
X92123000Y-50795537D01*
X92136413Y-50931723D01*
X92189420Y-51106463D01*
X92275499Y-51267504D01*
X92391341Y-51408659D01*
X92532495Y-51524501D01*
X92693536Y-51610580D01*
X92868276Y-51663587D01*
X93050000Y-51681485D01*
X93231723Y-51663587D01*
X93406463Y-51610580D01*
X93567504Y-51524501D01*
X93708659Y-51408659D01*
X93824501Y-51267505D01*
X93910580Y-51106464D01*
X93963587Y-50931724D01*
X93977000Y-50795538D01*
X93977000Y-49375526D01*
X93981484Y-49329999D01*
X93977000Y-49284472D01*
X93977000Y-49284462D01*
X93963587Y-49148276D01*
X93910580Y-48973536D01*
X93856995Y-48873287D01*
X93824501Y-48812494D01*
X93737688Y-48706712D01*
X93737684Y-48706708D01*
X93708659Y-48671341D01*
X93673292Y-48642316D01*
X93529066Y-48498090D01*
X93529066Y-47645000D01*
X93520822Y-47561293D01*
X93496405Y-47480804D01*
X93456755Y-47406624D01*
X93403395Y-47341605D01*
X93338376Y-47288245D01*
X93264196Y-47248595D01*
X93183707Y-47224178D01*
X93100000Y-47215934D01*
X90900000Y-47215934D01*
X90816293Y-47224178D01*
X90735804Y-47248595D01*
X90661624Y-47288245D01*
X90596605Y-47341605D01*
X90543245Y-47406624D01*
X90503595Y-47480804D01*
X90479178Y-47561293D01*
X90470934Y-47645000D01*
X71918076Y-47645000D01*
X71898659Y-47621341D01*
X71757505Y-47505499D01*
X71596464Y-47419420D01*
X71421724Y-47366413D01*
X71285538Y-47353000D01*
X71285527Y-47353000D01*
X71240000Y-47348516D01*
X71194473Y-47353000D01*
X70552747Y-47353000D01*
X70543395Y-47341605D01*
X70478376Y-47288245D01*
X70404196Y-47248595D01*
X70323707Y-47224178D01*
X70240000Y-47215934D01*
X68040000Y-47215934D01*
X67956293Y-47224178D01*
X67875804Y-47248595D01*
X67801624Y-47288245D01*
X67736605Y-47341605D01*
X67683245Y-47406624D01*
X67643595Y-47480804D01*
X67619178Y-47561293D01*
X67610934Y-47645000D01*
X67077000Y-47645000D01*
X67077000Y-45679066D01*
X67150000Y-45679066D01*
X67233707Y-45670822D01*
X67314196Y-45646405D01*
X67388376Y-45606755D01*
X67453395Y-45553395D01*
X67506755Y-45488376D01*
X67546405Y-45414196D01*
X67570822Y-45333707D01*
X67579066Y-45250000D01*
X67579066Y-45105000D01*
X70910934Y-45105000D01*
X70910934Y-46375000D01*
X70919178Y-46458707D01*
X70943595Y-46539196D01*
X70983245Y-46613376D01*
X71036605Y-46678395D01*
X71101624Y-46731755D01*
X71175804Y-46771405D01*
X71256293Y-46795822D01*
X71340000Y-46804066D01*
X73540000Y-46804066D01*
X73623707Y-46795822D01*
X73704196Y-46771405D01*
X73778376Y-46731755D01*
X73843395Y-46678395D01*
X73896755Y-46613376D01*
X73936405Y-46539196D01*
X73960822Y-46458707D01*
X73969066Y-46375000D01*
X73969066Y-45105000D01*
X73960822Y-45021293D01*
X73936405Y-44940804D01*
X73896755Y-44866624D01*
X73843395Y-44801605D01*
X73778376Y-44748245D01*
X73704196Y-44708595D01*
X73623707Y-44684178D01*
X73540000Y-44675934D01*
X71340000Y-44675934D01*
X71256293Y-44684178D01*
X71175804Y-44708595D01*
X71101624Y-44748245D01*
X71036605Y-44801605D01*
X70983245Y-44866624D01*
X70943595Y-44940804D01*
X70919178Y-45021293D01*
X70910934Y-45105000D01*
X67579066Y-45105000D01*
X67579066Y-44050000D01*
X67570822Y-43966293D01*
X67546405Y-43885804D01*
X67506755Y-43811624D01*
X67453395Y-43746605D01*
X67388376Y-43693245D01*
X67314196Y-43653595D01*
X67233707Y-43629178D01*
X67150000Y-43620934D01*
X65150000Y-43620934D01*
X65066293Y-43629178D01*
X64985804Y-43653595D01*
X64911624Y-43693245D01*
X64846605Y-43746605D01*
X64793245Y-43811624D01*
X64753595Y-43885804D01*
X64729178Y-43966293D01*
X64720934Y-44050000D01*
X64720934Y-45250000D01*
X64729178Y-45333707D01*
X64753595Y-45414196D01*
X64793245Y-45488376D01*
X64846605Y-45553395D01*
X64911624Y-45606755D01*
X64985804Y-45646405D01*
X65066293Y-45670822D01*
X65150000Y-45679066D01*
X65223000Y-45679066D01*
X65223000Y-46123217D01*
X65075945Y-46016463D01*
X64873000Y-45923000D01*
X63923000Y-45923000D01*
X63177000Y-45923000D01*
X62227000Y-45923000D01*
X62024055Y-46016463D01*
X61843243Y-46147723D01*
X61691513Y-46311735D01*
X61660443Y-46473539D01*
X61377000Y-46473539D01*
X61377000Y-43303774D01*
X62573000Y-43303774D01*
X62573000Y-43496226D01*
X62610546Y-43684980D01*
X62684194Y-43862783D01*
X62791115Y-44022801D01*
X62927199Y-44158885D01*
X63087217Y-44265806D01*
X63265020Y-44339454D01*
X63453774Y-44377000D01*
X63646226Y-44377000D01*
X63834980Y-44339454D01*
X64012783Y-44265806D01*
X64172801Y-44158885D01*
X64308885Y-44022801D01*
X64415806Y-43862783D01*
X64489454Y-43684980D01*
X64527000Y-43496226D01*
X64527000Y-43303774D01*
X64489454Y-43115020D01*
X64415806Y-42937217D01*
X64308885Y-42777199D01*
X64172801Y-42641115D01*
X64012783Y-42534194D01*
X63834980Y-42460546D01*
X63646226Y-42423000D01*
X63453774Y-42423000D01*
X63265020Y-42460546D01*
X63087217Y-42534194D01*
X62927199Y-42641115D01*
X62791115Y-42777199D01*
X62684194Y-42937217D01*
X62610546Y-43115020D01*
X62573000Y-43303774D01*
X61377000Y-43303774D01*
X61377000Y-38803774D01*
X62573000Y-38803774D01*
X62573000Y-38996226D01*
X62610546Y-39184980D01*
X62684194Y-39362783D01*
X62791115Y-39522801D01*
X62927199Y-39658885D01*
X63087217Y-39765806D01*
X63265020Y-39839454D01*
X63453774Y-39877000D01*
X63646226Y-39877000D01*
X63834980Y-39839454D01*
X64012783Y-39765806D01*
X64172801Y-39658885D01*
X64281686Y-39550000D01*
X64720934Y-39550000D01*
X64720934Y-40750000D01*
X64729178Y-40833707D01*
X64753595Y-40914196D01*
X64793245Y-40988376D01*
X64846605Y-41053395D01*
X64911624Y-41106755D01*
X64985804Y-41146405D01*
X64997655Y-41150000D01*
X64985804Y-41153595D01*
X64911624Y-41193245D01*
X64846605Y-41246605D01*
X64793245Y-41311624D01*
X64753595Y-41385804D01*
X64729178Y-41466293D01*
X64720934Y-41550000D01*
X64720934Y-42750000D01*
X64729178Y-42833707D01*
X64753595Y-42914196D01*
X64793245Y-42988376D01*
X64846605Y-43053395D01*
X64911624Y-43106755D01*
X64985804Y-43146405D01*
X65066293Y-43170822D01*
X65150000Y-43179066D01*
X67150000Y-43179066D01*
X67233707Y-43170822D01*
X67314196Y-43146405D01*
X67388376Y-43106755D01*
X67453395Y-43053395D01*
X67506755Y-42988376D01*
X67546405Y-42914196D01*
X67570822Y-42833707D01*
X67579066Y-42750000D01*
X67579066Y-42565000D01*
X67610934Y-42565000D01*
X67610934Y-43835000D01*
X67619178Y-43918707D01*
X67643595Y-43999196D01*
X67683245Y-44073376D01*
X67736605Y-44138395D01*
X67801624Y-44191755D01*
X67875804Y-44231405D01*
X67956293Y-44255822D01*
X68040000Y-44264066D01*
X70240000Y-44264066D01*
X70323707Y-44255822D01*
X70404196Y-44231405D01*
X70478376Y-44191755D01*
X70543395Y-44138395D01*
X70596755Y-44073376D01*
X70636405Y-43999196D01*
X70660822Y-43918707D01*
X70669066Y-43835000D01*
X70669066Y-42565000D01*
X70660822Y-42481293D01*
X70636405Y-42400804D01*
X70596755Y-42326624D01*
X70543395Y-42261605D01*
X70478376Y-42208245D01*
X70404196Y-42168595D01*
X70323707Y-42144178D01*
X70240000Y-42135934D01*
X68040000Y-42135934D01*
X67956293Y-42144178D01*
X67875804Y-42168595D01*
X67801624Y-42208245D01*
X67736605Y-42261605D01*
X67683245Y-42326624D01*
X67643595Y-42400804D01*
X67619178Y-42481293D01*
X67610934Y-42565000D01*
X67579066Y-42565000D01*
X67579066Y-41550000D01*
X67570822Y-41466293D01*
X67546405Y-41385804D01*
X67506755Y-41311624D01*
X67453395Y-41246605D01*
X67388376Y-41193245D01*
X67314196Y-41153595D01*
X67302345Y-41150000D01*
X67314196Y-41146405D01*
X67388376Y-41106755D01*
X67453395Y-41053395D01*
X67506755Y-40988376D01*
X67546405Y-40914196D01*
X67570822Y-40833707D01*
X67579066Y-40750000D01*
X67579066Y-40025000D01*
X70910934Y-40025000D01*
X70910934Y-41295000D01*
X70919178Y-41378707D01*
X70943595Y-41459196D01*
X70983245Y-41533376D01*
X71036605Y-41598395D01*
X71101624Y-41651755D01*
X71175804Y-41691405D01*
X71256293Y-41715822D01*
X71340000Y-41724066D01*
X73540000Y-41724066D01*
X73623707Y-41715822D01*
X73704196Y-41691405D01*
X73778376Y-41651755D01*
X73843395Y-41598395D01*
X73896755Y-41533376D01*
X73936405Y-41459196D01*
X73960822Y-41378707D01*
X73969066Y-41295000D01*
X73969066Y-40025000D01*
X73960822Y-39941293D01*
X73936405Y-39860804D01*
X73896755Y-39786624D01*
X73843395Y-39721605D01*
X73778376Y-39668245D01*
X73704196Y-39628595D01*
X73623707Y-39604178D01*
X73540000Y-39595934D01*
X71340000Y-39595934D01*
X71256293Y-39604178D01*
X71175804Y-39628595D01*
X71101624Y-39668245D01*
X71036605Y-39721605D01*
X70983245Y-39786624D01*
X70943595Y-39860804D01*
X70919178Y-39941293D01*
X70910934Y-40025000D01*
X67579066Y-40025000D01*
X67579066Y-39550000D01*
X67570822Y-39466293D01*
X67546405Y-39385804D01*
X67506755Y-39311624D01*
X67453395Y-39246605D01*
X67388376Y-39193245D01*
X67314196Y-39153595D01*
X67233707Y-39129178D01*
X67150000Y-39120934D01*
X65150000Y-39120934D01*
X65066293Y-39129178D01*
X64985804Y-39153595D01*
X64911624Y-39193245D01*
X64846605Y-39246605D01*
X64793245Y-39311624D01*
X64753595Y-39385804D01*
X64729178Y-39466293D01*
X64720934Y-39550000D01*
X64281686Y-39550000D01*
X64308885Y-39522801D01*
X64415806Y-39362783D01*
X64489454Y-39184980D01*
X64527000Y-38996226D01*
X64527000Y-38803774D01*
X64489454Y-38615020D01*
X64415806Y-38437217D01*
X64308885Y-38277199D01*
X64172801Y-38141115D01*
X64012783Y-38034194D01*
X63834980Y-37960546D01*
X63646226Y-37923000D01*
X63453774Y-37923000D01*
X63265020Y-37960546D01*
X63087217Y-38034194D01*
X62927199Y-38141115D01*
X62791115Y-38277199D01*
X62684194Y-38437217D01*
X62610546Y-38615020D01*
X62573000Y-38803774D01*
X61377000Y-38803774D01*
X61377000Y-37485000D01*
X67610934Y-37485000D01*
X67610934Y-38755000D01*
X67619178Y-38838707D01*
X67643595Y-38919196D01*
X67683245Y-38993376D01*
X67736605Y-39058395D01*
X67801624Y-39111755D01*
X67875804Y-39151405D01*
X67956293Y-39175822D01*
X68040000Y-39184066D01*
X70240000Y-39184066D01*
X70323707Y-39175822D01*
X70404196Y-39151405D01*
X70478376Y-39111755D01*
X70543395Y-39058395D01*
X70596755Y-38993376D01*
X70636405Y-38919196D01*
X70660822Y-38838707D01*
X70669066Y-38755000D01*
X70669066Y-37939366D01*
X70689420Y-38006464D01*
X70775499Y-38167505D01*
X70891341Y-38308659D01*
X71032495Y-38424501D01*
X71193536Y-38510580D01*
X71368276Y-38563587D01*
X71504462Y-38577000D01*
X73504117Y-38577000D01*
X73550000Y-38581519D01*
X73595883Y-38577000D01*
X75304473Y-38577000D01*
X75350000Y-38581484D01*
X75395527Y-38577000D01*
X75395538Y-38577000D01*
X75531724Y-38563587D01*
X75706464Y-38510580D01*
X75867505Y-38424501D01*
X76008659Y-38308659D01*
X76037688Y-38273287D01*
X77333976Y-36977000D01*
X77373000Y-36977000D01*
X77373000Y-37925247D01*
X77373001Y-37925257D01*
X77373000Y-39116755D01*
X77369726Y-39150000D01*
X77373000Y-39183245D01*
X77373000Y-39183251D01*
X77373001Y-39183261D01*
X77373000Y-40374757D01*
X77369726Y-40408002D01*
X77373000Y-40441247D01*
X77373000Y-40441253D01*
X77382796Y-40540716D01*
X77421508Y-40668331D01*
X77484372Y-40785942D01*
X77568973Y-40889028D01*
X77594800Y-40910224D01*
X79089772Y-42405196D01*
X79110971Y-42431027D01*
X79214057Y-42515628D01*
X79331668Y-42578492D01*
X79459283Y-42617204D01*
X79558746Y-42627000D01*
X79558755Y-42627000D01*
X79591997Y-42630274D01*
X79625239Y-42627000D01*
X80823001Y-42627000D01*
X80823000Y-45095537D01*
X80836413Y-45231723D01*
X80889420Y-45406463D01*
X80975499Y-45567504D01*
X81091341Y-45708659D01*
X81232495Y-45824501D01*
X81393536Y-45910580D01*
X81568276Y-45963587D01*
X81750000Y-45981485D01*
X81931723Y-45963587D01*
X82106463Y-45910580D01*
X82267504Y-45824501D01*
X82408659Y-45708659D01*
X82524501Y-45567505D01*
X82610580Y-45406464D01*
X82663587Y-45231724D01*
X82677000Y-45095538D01*
X82677000Y-42633975D01*
X82737688Y-42573287D01*
X82824501Y-42467505D01*
X82910580Y-42306463D01*
X82963586Y-42131724D01*
X82981484Y-41950001D01*
X82963586Y-41768277D01*
X82910580Y-41593537D01*
X82824501Y-41432495D01*
X82708659Y-41291341D01*
X82567505Y-41175499D01*
X82406463Y-41089420D01*
X82231723Y-41036414D01*
X82049999Y-41018516D01*
X81868276Y-41036414D01*
X81693537Y-41089420D01*
X81532495Y-41175499D01*
X81426713Y-41262312D01*
X81416025Y-41273000D01*
X79872420Y-41273000D01*
X78727000Y-40127580D01*
X78727000Y-39727000D01*
X82416755Y-39727000D01*
X82450000Y-39730274D01*
X82483245Y-39727000D01*
X82483252Y-39727000D01*
X82582715Y-39717204D01*
X82710330Y-39678492D01*
X82827941Y-39615628D01*
X82931027Y-39531027D01*
X82952226Y-39505196D01*
X83092582Y-39364840D01*
X83191227Y-39345218D01*
X83341731Y-39282877D01*
X83477181Y-39192372D01*
X83592372Y-39077181D01*
X83682877Y-38941731D01*
X83745218Y-38791227D01*
X83777000Y-38631452D01*
X83777000Y-38468548D01*
X83745218Y-38308773D01*
X83682877Y-38158269D01*
X83592372Y-38022819D01*
X83477181Y-37907628D01*
X83341731Y-37817123D01*
X83191227Y-37754782D01*
X83031452Y-37723000D01*
X82868548Y-37723000D01*
X82708773Y-37754782D01*
X82558269Y-37817123D01*
X82422819Y-37907628D01*
X82307628Y-38022819D01*
X82217123Y-38158269D01*
X82154782Y-38308773D01*
X82142006Y-38373000D01*
X78727000Y-38373000D01*
X78727000Y-37077000D01*
X80477346Y-37077000D01*
X80519995Y-37112001D01*
X80681036Y-37198080D01*
X80855776Y-37251087D01*
X81037500Y-37268985D01*
X81219223Y-37251087D01*
X81393963Y-37198080D01*
X81424785Y-37181605D01*
X81555005Y-37112001D01*
X81696159Y-36996159D01*
X81812001Y-36855005D01*
X81852898Y-36778492D01*
X81898080Y-36693964D01*
X81951087Y-36519224D01*
X81964500Y-36383038D01*
X81964500Y-36383026D01*
X81968984Y-36337499D01*
X81964500Y-36291972D01*
X81964500Y-36091963D01*
X81951087Y-35955777D01*
X81898080Y-35781036D01*
X81812001Y-35619995D01*
X81696159Y-35478841D01*
X81555005Y-35362999D01*
X81393964Y-35276920D01*
X81219224Y-35223913D01*
X81037500Y-35206015D01*
X80880287Y-35221499D01*
X80850000Y-35218516D01*
X80804473Y-35223000D01*
X78469287Y-35223000D01*
X78406464Y-35189420D01*
X78231724Y-35136413D01*
X78095538Y-35123000D01*
X76995527Y-35123000D01*
X76950000Y-35118516D01*
X76904473Y-35123000D01*
X76904462Y-35123000D01*
X76768276Y-35136413D01*
X76593536Y-35189420D01*
X76432494Y-35275498D01*
X76326712Y-35362312D01*
X76326708Y-35362316D01*
X76291341Y-35391341D01*
X76262316Y-35426708D01*
X74966025Y-36723000D01*
X73595537Y-36723000D01*
X73550000Y-36718515D01*
X73504462Y-36723000D01*
X71504462Y-36723000D01*
X71368276Y-36736413D01*
X71193536Y-36789420D01*
X71032495Y-36875499D01*
X70891341Y-36991341D01*
X70775499Y-37132495D01*
X70689420Y-37293536D01*
X70658777Y-37394552D01*
X70636405Y-37320804D01*
X70596755Y-37246624D01*
X70543395Y-37181605D01*
X70478376Y-37128245D01*
X70404196Y-37088595D01*
X70323707Y-37064178D01*
X70240000Y-37055934D01*
X68040000Y-37055934D01*
X67956293Y-37064178D01*
X67875804Y-37088595D01*
X67801624Y-37128245D01*
X67736605Y-37181605D01*
X67683245Y-37246624D01*
X67643595Y-37320804D01*
X67619178Y-37401293D01*
X67610934Y-37485000D01*
X61377000Y-37485000D01*
X61377000Y-35826461D01*
X61660443Y-35826461D01*
X61691513Y-35988265D01*
X61843243Y-36152277D01*
X62024055Y-36283537D01*
X62227000Y-36377000D01*
X63177000Y-36377000D01*
X63177000Y-35673000D01*
X63923000Y-35673000D01*
X63923000Y-36377000D01*
X64873000Y-36377000D01*
X65075945Y-36283537D01*
X65256757Y-36152277D01*
X65408487Y-35988265D01*
X65439557Y-35826461D01*
X65395687Y-35673000D01*
X63923000Y-35673000D01*
X63177000Y-35673000D01*
X61704313Y-35673000D01*
X61660443Y-35826461D01*
X61377000Y-35826461D01*
X61377000Y-34773539D01*
X61660443Y-34773539D01*
X61704313Y-34927000D01*
X63177000Y-34927000D01*
X63177000Y-34223000D01*
X63923000Y-34223000D01*
X63923000Y-34927000D01*
X65395687Y-34927000D01*
X65439557Y-34773539D01*
X65408487Y-34611735D01*
X65256757Y-34447723D01*
X65075945Y-34316463D01*
X64873000Y-34223000D01*
X63923000Y-34223000D01*
X63177000Y-34223000D01*
X62227000Y-34223000D01*
X62024055Y-34316463D01*
X61843243Y-34447723D01*
X61691513Y-34611735D01*
X61660443Y-34773539D01*
X61377000Y-34773539D01*
X61377000Y-29277000D01*
X94857354Y-29277000D01*
X94698421Y-29435934D01*
M02*
